<?xml version="1.0" encoding="utf-8"?>
<!-- Generator: Adobe Illustrator 27.5.0, SVG Export Plug-In . SVG Version: 6.00 Build 0)  -->
<svg version="1.1" xmlns="http://www.w3.org/2000/svg" xmlns:xlink="http://www.w3.org/1999/xlink" x="0px" y="0px"
	 viewBox="0 0 500 500" style="enable-background:new 0 0 500 500;" xml:space="preserve">
<g id="Background_Complete">
	<g>
		<g>
			<g>
				<g>
					<g>
						<path style="fill:#EBEBEB;" d="M140.132,162.703c14.254-14.075,14.339-35.694,10.474-54.453
							c-0.645-3.131-0.866-6.511-2.837-9.019c-1.971-2.507-5.789-3.798-8.383-1.989c-2.151,1.501-2.705,4.396-3.629,6.869
							c-1.229,3.291-3.399,6.212-6.181,8.318c-1.828,1.383-4.2,2.444-6.367,1.69c-2.973-1.035-3.935-4.733-4.451-7.87
							c-0.961-5.845-1.923-11.69-2.884-17.534c-0.516-3.135-1.053-6.336-2.535-9.142c-1.482-2.807-4.107-5.201-7.23-5.526
							c-3.123-0.325-6.514,2.023-6.62,5.196c-0.044,1.321,0.442,2.601,0.578,3.916c0.135,1.315-0.225,2.858-1.398,3.431
							c-1.188,0.581-2.593-0.093-3.686-0.85c-3.774-2.61-6.664-6.31-9.407-10.011c-2.743-3.702-5.442-7.51-8.965-10.458
							c-3.523-2.949-8.049-4.989-12.578-4.476c-4.53,0.513-8.837,4.099-9.218,8.697c-0.382,4.61,2.96,8.651,6.375,11.747
							c5.066,4.593,10.788,8.443,16.93,11.39c1.107,0.532,2.307,1.106,2.883,2.202c1.037,1.972-0.587,4.384-2.532,5.423
							c-2.202,1.177-4.777,1.367-7.17,2.072c-2.393,0.705-4.855,2.235-5.385,4.701c-0.736,3.421,2.515,6.32,5.526,8.067
							c6.028,3.5,12.647,5.948,19.477,7.204c2.448,0.449,5,0.775,7.135,2.076c2.135,1.302,3.738,3.926,2.992,6.324
							c-0.746,2.401-3.507,3.6-5.997,3.564c-2.489-0.035-4.874-0.976-7.323-1.451c-4.582-0.889-10.091,0.358-12.213,4.549
							c-1.394,2.755-0.972,6.188,0.443,8.946c1.414,2.759,3.702,4.952,6.072,6.93c8.283,6.916,18.229,11.923,28.808,13.679
							C121.414,168.672,130.828,168.028,140.132,162.703"/>
					</g>
				</g>
			</g>
		</g>
		<g>
			<g>
				<g>
					<g>
						<g>
							<path style="fill:#E0E0E0;" d="M58.607,64.422c-0.006,0.009,0.115,0.092,0.355,0.246c0.267,0.167,0.621,0.388,1.072,0.67
								c0.945,0.585,2.337,1.448,4.1,2.608c3.528,2.31,8.532,5.837,14.172,10.869c2.827,2.505,5.811,5.378,8.959,8.521
								c3.143,3.15,6.479,6.536,9.854,10.228c3.374,3.69,6.802,7.677,10.017,12.067c1.617,2.188,3.121,4.51,4.657,6.877
								c1.529,2.367,3.08,4.77,4.651,7.2c6.246,9.744,11.897,19.229,16.315,28.237c4.434,8.997,7.609,17.494,9.613,24.812
								c2.024,7.318,2.909,13.421,3.317,17.643c0.193,2.113,0.31,3.76,0.349,4.876c0.029,0.534,0.052,0.955,0.069,1.27
								c0.018,0.286,0.033,0.434,0.043,0.434c0.01-0.001,0.016-0.147,0.018-0.435c-0.004-0.316-0.006-0.737-0.01-1.273
								c-0.002-1.12-0.082-2.77-0.24-4.893c-0.341-4.237-1.166-10.373-3.146-17.732c-1.961-7.358-5.109-15.905-9.531-24.943
								c-4.404-9.048-10.055-18.565-16.307-28.316c-1.572-2.432-3.125-4.835-4.656-7.203c-1.533-2.36-3.054-4.702-4.683-6.899
								c-3.239-4.411-6.689-8.405-10.083-12.093c-3.393-3.692-6.748-7.071-9.907-10.207c-3.168-3.131-6.175-5.994-9.028-8.487
								c-5.692-5.008-10.751-8.496-14.322-10.748c-1.784-1.133-3.196-1.965-4.161-2.517c-0.464-0.261-0.827-0.466-1.101-0.62
								C58.742,64.479,58.612,64.413,58.607,64.422z"/>
						</g>
					</g>
				</g>
			</g>
		</g>
		<g>
			<g>
				<g>
					<g>
						<g>
							<path style="fill:#E0E0E0;" d="M107.426,109.294c0.04-0.001,0.065-0.494,0.077-1.389c0.017-0.894-0.002-2.187-0.049-3.785
								c-0.09-3.195-0.365-7.602-0.687-12.46c-0.322-4.861-0.534-9.26-0.575-12.447c-0.025-1.593-0.033-2.884-0.026-3.775
								c0.001-0.892-0.017-1.387-0.057-1.39c-0.04-0.002-0.099,0.489-0.17,1.38c-0.076,0.891-0.132,2.184-0.159,3.783
								c-0.065,3.199,0.082,7.619,0.404,12.484c0.329,4.793,0.628,9.13,0.856,12.443c0.094,1.497,0.171,2.759,0.234,3.772
								C107.334,108.801,107.385,109.295,107.426,109.294z"/>
						</g>
					</g>
				</g>
			</g>
		</g>
		<g>
			<g>
				<g>
					<g>
						<g>
							<path style="fill:#E0E0E0;" d="M65.865,108.65c0.006,0.04,0.59,0.009,1.639-0.082c1.049-0.085,2.566-0.215,4.446-0.316
								c3.757-0.232,8.958-0.371,14.702-0.274c5.746,0.108,10.942,0.427,14.694,0.766c1.878,0.156,3.394,0.324,4.442,0.433
								c1.048,0.114,1.631,0.157,1.638,0.117c0.005-0.041-0.567-0.161-1.608-0.345c-1.042-0.179-2.554-0.41-4.432-0.621
								c-3.752-0.447-8.962-0.833-14.726-0.942c-5.761-0.097-10.98,0.108-14.741,0.449c-1.882,0.155-3.398,0.349-4.442,0.505
								C66.433,108.501,65.86,108.608,65.865,108.65z"/>
						</g>
					</g>
				</g>
			</g>
		</g>
		<g>
			<g>
				<g>
					<g>
						<g>
							<path style="fill:#E0E0E0;" d="M132.618,151.05c0.02,0.005,0.085-0.18,0.192-0.538c0.119-0.426,0.264-0.946,0.44-1.575
								c0.376-1.369,0.868-3.365,1.443-5.838c1.155-4.946,2.535-11.828,3.955-19.443c1.421-7.618,2.735-14.504,3.785-19.466
								c0.517-2.414,0.944-4.399,1.26-5.875c0.134-0.64,0.244-1.167,0.334-1.601c0.07-0.367,0.098-0.562,0.078-0.568
								c-0.02-0.004-0.085,0.181-0.192,0.54c-0.119,0.426-0.264,0.944-0.44,1.574c-0.376,1.369-0.868,3.365-1.444,5.838
								c-1.155,4.946-2.534,11.828-3.955,19.446c-1.421,7.616-2.735,14.5-3.784,19.464c-0.519,2.413-0.944,4.399-1.26,5.874
								c-0.134,0.64-0.244,1.169-0.334,1.601C132.626,150.85,132.598,151.045,132.618,151.05z"/>
						</g>
					</g>
				</g>
			</g>
		</g>
		<g>
			<g>
				<g>
					<g>
						<g>
							<path style="fill:#E0E0E0;" d="M76.151,142.948c-0.002,0.02,0.194,0.064,0.569,0.128c0.442,0.069,0.985,0.153,1.643,0.255
								c1.515,0.22,3.561,0.517,6.049,0.878c5.107,0.743,12.149,1.849,19.928,3.082c7.782,1.234,14.841,2.276,19.965,2.913
								c2.562,0.319,4.637,0.557,6.075,0.691c0.664,0.058,1.211,0.106,1.656,0.146c0.379,0.027,0.58,0.03,0.582,0.01
								c0.002-0.02-0.194-0.064-0.569-0.129c-0.441-0.068-0.984-0.152-1.643-0.254c-1.515-0.22-3.559-0.516-6.047-0.878
								c-5.107-0.742-12.15-1.849-19.932-3.082c-7.78-1.234-14.838-2.276-19.962-2.913c-2.562-0.319-4.637-0.557-6.076-0.691
								c-0.664-0.058-1.21-0.107-1.656-0.146C76.354,142.931,76.154,142.927,76.151,142.948z"/>
						</g>
					</g>
				</g>
			</g>
		</g>
	</g>
	<g>
		<g>
			<g>
				<path style="fill:#E0E0E0;" d="M454.907,109.388c0,0-10.206-5.031-18.826,18.948c-8.62,23.979-11.32,37.52-11.32,37.52
					s-2.435,5.104-6.068,2.431c-3.633-2.673-9.183-10.86-14.493-8.585c-5.507,2.359-6.579,8.975-4.3,18.208
					c2.279,9.233,6.529,29.644,6.907,31.491c0.371,1.813-0.336,4.644-3.102,3.219s-19.476-15.87-25.856-7.531
					c-6.38,8.339,4.195,33.017,5.299,35.737c1.104,2.72,0.706,3.992-0.542,4.858c-1.249,0.866-6.407-4.519-11.328-8.433
					c-4.921-3.914-11.313-7.59-14.591-2.47s-2.076,24.49,20.17,53.379l11.184,12.711l16.726-3.073
					c35.394-8.757,48.394-23.167,49.017-29.214c0.622-6.047-6.668-7.15-12.956-7.151c-6.287,0-13.677,1.002-14.115-0.453
					c-0.438-1.455,0.043-2.699,2.6-4.14c2.557-1.441,26.197-14.169,26.395-24.667c0.199-10.498-21.871-9.596-24.923-10.204
					c-3.052-0.608-1.842-3.262-0.423-4.451c1.445-1.21,17.479-14.537,25.01-20.344c7.531-5.806,10.811-11.651,7.97-16.926
					c-2.739-5.086-12.179-2.135-16.686-2.305c-4.507-0.17-3.235-5.68-3.235-5.68s6.317-12.278,14.5-36.409
					c8.183-24.132-3.228-26.554-3.228-26.554"/>
			</g>
		</g>
		<g>
			<g>
				<g>
					<path style="fill:#EBEBEB;" d="M447.15,130.849c0,0-0.041,0.177-0.146,0.514c-0.114,0.356-0.274,0.852-0.479,1.492
						c-0.44,1.329-1.076,3.253-1.891,5.722c-1.648,4.967-4.083,12.137-7.126,20.986c-6.079,17.699-14.683,42.077-24.27,68.97
						c-9.591,26.902-18.25,51.261-24.418,68.928c-3.07,8.821-5.556,15.966-7.283,20.928c-0.856,2.454-1.523,4.367-1.984,5.689
						c-0.227,0.633-0.402,1.123-0.529,1.475c-0.122,0.331-0.197,0.497-0.197,0.497s0.041-0.177,0.146-0.514
						c0.114-0.356,0.274-0.852,0.479-1.492c0.439-1.329,1.075-3.253,1.891-5.721c1.647-4.966,4.083-12.136,7.126-20.984
						c6.079-17.699,14.683-42.08,24.274-68.982c9.588-26.893,18.246-51.25,24.414-68.916c3.07-8.821,5.557-15.967,7.284-20.929
						c0.856-2.454,1.523-4.368,1.985-5.69c0.227-0.633,0.403-1.123,0.529-1.475C447.075,131.015,447.15,130.849,447.15,130.849z"/>
				</g>
			</g>
		</g>
		<g>
			<g>
				<g>
					<path style="fill:#EBEBEB;" d="M411.502,171.467c0.033-0.014,0.234,0.373,0.568,1.085c0.338,0.711,0.795,1.754,1.349,3.047
						c1.102,2.589,2.532,6.203,4.038,10.22c1.471,3.967,2.801,7.553,3.818,10.297c0.466,1.234,0.86,2.275,1.176,3.112
						c0.281,0.733,0.421,1.147,0.388,1.161c-0.033,0.015-0.237-0.371-0.576-1.081c-0.335-0.713-0.794-1.756-1.334-3.055
						c-1.076-2.6-2.459-6.232-3.964-10.248c-1.499-3.954-2.854-7.529-3.891-10.265c-0.473-1.232-0.872-2.271-1.193-3.107
						C411.606,171.895,411.469,171.481,411.502,171.467z"/>
				</g>
			</g>
		</g>
		<g>
			<g>
				<g>
					<path style="fill:#EBEBEB;" d="M424.42,200.492c-0.057-0.133,7.264-3.411,16.351-7.319c9.09-3.909,16.503-6.969,16.56-6.836
						c0.057,0.133-7.263,3.41-16.353,7.319C431.892,197.564,424.477,200.625,424.42,200.492z"/>
				</g>
			</g>
		</g>
		<g>
			<g>
				<g>
					<path style="fill:#EBEBEB;" d="M407.831,241.133c-0.003-0.036,0.436-0.111,1.232-0.214c0.904-0.111,2.032-0.251,3.372-0.416
						c2.846-0.355,6.774-0.863,11.088-1.581c4.317-0.709,8.201-1.487,11.009-2.072c1.322-0.274,2.435-0.505,3.327-0.69
						c0.787-0.159,1.226-0.23,1.235-0.195c0.009,0.035-0.414,0.174-1.187,0.394c-0.773,0.22-1.897,0.518-3.293,0.854
						c-2.791,0.68-6.675,1.518-11.004,2.229c-4.326,0.721-8.273,1.171-11.134,1.432c-1.431,0.125-2.59,0.213-3.393,0.25
						C408.279,241.164,407.834,241.169,407.831,241.133z"/>
				</g>
			</g>
		</g>
		<g>
			<g>
				<g>
					<path style="fill:#EBEBEB;" d="M390.369,217.452c0.029-0.022,0.304,0.284,0.777,0.856c0.534,0.667,1.189,1.487,1.963,2.453
						c1.639,2.085,3.229,5.821,6.317,8.213c2.444,3.227,4.632,6.165,6.195,8.308c0.721,1.006,1.332,1.859,1.829,2.554
						c0.423,0.61,0.643,0.958,0.614,0.98c-0.029,0.022-0.304-0.284-0.777-0.856c-0.534-0.667-1.189-1.487-1.963-2.453
						c-1.639-2.085-3.874-4.988-6.318-8.215c-2.443-3.225-4.631-6.164-6.194-8.306c-0.721-1.006-1.332-1.859-1.829-2.554
						C390.56,217.821,390.34,217.474,390.369,217.452z"/>
				</g>
			</g>
		</g>
		<g>
			<g>
				<g>
					<path style="fill:#EBEBEB;" d="M371.166,251.47c0.029-0.022,0.377,0.373,0.983,1.106c0.658,0.817,1.507,1.87,2.527,3.135
						c2.116,2.661,5.009,6.359,8.179,10.463c3.171,4.105,6.019,7.84,8.059,10.559c0.966,1.306,1.771,2.393,2.394,3.237
						c0.556,0.771,0.85,1.208,0.821,1.23c-0.029,0.022-0.377-0.372-0.983-1.105c-0.658-0.817-1.508-1.87-2.527-3.134
						c-2.116-2.661-5.009-6.359-8.181-10.465c-3.17-4.104-6.017-7.838-8.057-10.557c-0.966-1.306-1.771-2.393-2.395-3.237
						C371.431,251.929,371.137,251.492,371.166,251.47z"/>
				</g>
			</g>
		</g>
		<g>
			<g>
				<g>
					<path style="fill:#EBEBEB;" d="M393.781,280.333c-0.005-0.036,0.549-0.145,1.554-0.311c1.098-0.176,2.53-0.405,4.257-0.682
						c3.593-0.579,8.552-1.399,14.001-2.458c5.452-1.051,10.361-2.133,13.91-2.94c1.705-0.387,3.12-0.708,4.204-0.953
						c0.994-0.221,1.548-0.327,1.557-0.292c0.009,0.035-0.528,0.208-1.507,0.49c-0.979,0.282-2.402,0.669-4.167,1.117
						c-3.53,0.901-8.436,2.042-13.897,3.095c-5.458,1.061-10.436,1.824-14.046,2.31c-1.806,0.238-3.269,0.416-4.283,0.517
						C394.348,280.329,393.785,280.369,393.781,280.333z"/>
				</g>
			</g>
		</g>
	</g>
</g>
<g id="Background_Simple" style="display:none;">
	<path style="display:inline;fill:#EBEBEB;" d="M70.124,131.875l1.761-4.136c14.848-34.864,47.447-59.418,85.201-62.676
		c4.853-0.419,9.737-0.492,14.61-0.2c35.084,2.103,68.473,23.073,85.602,53.763c10.074,18.049,15.383,39.771,31.342,52.907
		c20.771,17.096,51.11,13.193,77.581,8.398c26.47-4.795,56.842-8.623,77.538,8.563c12.961,10.764,19.132,27.904,20.725,44.676
		c4.217,44.405-20.978,88.441-57.582,113.93c-36.604,25.489-82.887,34.203-127.44,32.061
		c-62.414-3.001-123.344-13.916-165.642-59.909C71.522,273.26,50.664,191.253,70.124,131.875z"/>
</g>
<g id="Floor">
	<g>
		<g>
			<path style="fill:#263238;" d="M459.724,453.012c0,0.144-97.326,0.26-217.357,0.26c-120.072,0-217.378-0.117-217.378-0.26
				c0-0.144,97.305-0.26,217.378-0.26C362.397,452.751,459.724,452.868,459.724,453.012z"/>
		</g>
	</g>
</g>
<g id="Login">
	<g>
		<g>
			<g>
				<rect x="139.964" y="65.516" style="fill:#F5F5F5;" width="254.786" height="319.636"/>
			</g>
			<g>
				<g>
					<path style="fill:#263238;" d="M139.964,65.516c1.803-0.002,101.147-0.086,254.786-0.216l0.216,0v0.217
						c0.013,91.303,0.028,201.281,0.044,319.608v0.027v0.26h-0.26c-91.995-0.01-178.932-0.019-254.785-0.027h-0.233l0-0.233
						C139.87,195.205,139.963,67.558,139.964,65.516c0.002,2.041,0.095,129.689,0.233,319.636l-0.233-0.233
						c75.854-0.008,162.79-0.017,254.785-0.027l-0.26,0.26v-0.027c0.016-118.328,0.031-228.306,0.044-319.608l0.216,0.216
						C241.111,65.602,141.766,65.517,139.964,65.516z"/>
				</g>
			</g>
		</g>
		<g>
			<g>
				<path d="M238.123,90.864h2.557v11.604h7.199v2.164h-9.756V90.864z"/>
				<path d="M248.704,99.381c0-3.147,2.36-5.37,5.586-5.37c3.265,0,5.606,2.223,5.606,5.37c0,3.147-2.341,5.389-5.606,5.389
					C251.064,104.77,248.704,102.528,248.704,99.381z M257.417,99.381c0-2.006-1.337-3.285-3.127-3.285
					c-1.77,0-3.108,1.278-3.108,3.285c0,2.006,1.337,3.285,3.108,3.285C256.08,102.665,257.417,101.387,257.417,99.381z"/>
				<path d="M272.678,94.129v8.91c0,3.816-1.986,5.547-5.664,5.547c-1.967,0-3.914-0.512-5.114-1.495l1.102-1.849
					c0.924,0.767,2.419,1.259,3.875,1.259c2.32,0,3.343-1.062,3.343-3.187v-0.551c-0.865,0.944-2.104,1.397-3.521,1.397
					c-3.009,0-5.311-2.045-5.311-5.094c0-3.048,2.302-5.055,5.311-5.055c1.476,0,2.773,0.472,3.639,1.515v-1.396H272.678z
					 M270.259,99.066c0-1.77-1.338-2.97-3.186-2.97c-1.868,0-3.206,1.2-3.206,2.97c0,1.79,1.338,3.009,3.206,3.009
					C268.921,102.075,270.259,100.856,270.259,99.066z"/>
				<path d="M275.568,90.923c0-0.826,0.669-1.475,1.573-1.475c0.905,0,1.574,0.61,1.574,1.416c0,0.866-0.649,1.534-1.574,1.534
					C276.237,92.398,275.568,91.749,275.568,90.923z M275.903,94.129h2.458v10.503h-2.458V94.129z"/>
				<path d="M291.932,98.614v6.019h-2.459v-5.704c0-1.868-0.925-2.773-2.498-2.773c-1.75,0-2.931,1.062-2.931,3.167v5.311h-2.458
					V94.129h2.34v1.357c0.807-0.964,2.085-1.475,3.619-1.475C290.063,94.011,291.932,95.447,291.932,98.614z"/>
			</g>
			<g>
				<g>
					<g>
						<path style="fill:#E8505B;" d="M309.779,83.775c0.699,1.194,0.76,2.692,0.369,4.019c-0.391,1.327-1.196,2.5-2.134,3.517
							c-1.814,1.969-4.619,3.243-7.187,3.998c-0.653-2.9,0.944-5.956,1.852-7.456C304.114,85.483,308.146,82.071,309.779,83.775"/>
					</g>
				</g>
				<g>
					<g>
						<path style="fill:#E8505B;" d="M300.337,100.389c0.598-1.425,2.077-2.387,3.615-2.535c1.538-0.148,3.096,0.452,4.27,1.457
							c0.543,0.465,1.042,1.087,1.025,1.801c-0.016,0.668-0.502,1.26-1.102,1.555c-0.599,0.295-1.293,0.336-1.959,0.289
							C303.901,102.793,301.719,102.216,300.337,100.389"/>
					</g>
				</g>
				<g>
					<g>
						<g>
							<path style="fill:#263238;" d="M294.565,103.789c-0.023-0.028,0.444-0.511,1.273-1.229c0.415-0.359,0.969-0.735,1.615-1.065
								c0.646-0.325,1.348-0.698,2.147-0.98c1.587-0.578,3.16-0.668,4.249-0.488c0.547,0.085,0.974,0.226,1.261,0.333
								c0.284,0.12,0.433,0.2,0.426,0.219c-0.018,0.051-0.644-0.222-1.714-0.341c-1.065-0.121-2.576-0.001-4.121,0.561
								c-0.77,0.271-1.476,0.634-2.122,0.943c-0.644,0.313-1.181,0.652-1.608,0.984
								C295.118,103.393,294.595,103.825,294.565,103.789z"/>
						</g>
					</g>
				</g>
				<g>
					<g>
						<g>
							<path style="fill:#263238;" d="M306.938,86.644c0.017,0.012-0.145,0.286-0.454,0.772c-0.309,0.486-0.765,1.183-1.335,2.039
								c-1.142,1.712-2.746,4.06-4.581,6.609c-1.836,2.549-3.564,4.81-4.847,6.42c-0.642,0.805-1.169,1.45-1.542,1.888
								c-0.372,0.439-0.586,0.676-0.602,0.663c-0.016-0.013,0.166-0.274,0.51-0.735c0.379-0.502,0.872-1.157,1.466-1.946
								c1.24-1.641,2.937-3.919,4.772-6.465c1.8-2.538,3.429-4.833,4.65-6.554c0.573-0.804,1.049-1.472,1.414-1.985
								C306.725,86.885,306.921,86.633,306.938,86.644z"/>
						</g>
					</g>
				</g>
				<g>
					<g>
						<path style="fill:#E8505B;" d="M297.005,99.218c1.076-3.075,0.546-6.665-1.375-9.297c-0.489-0.67-1.238-1.34-2.044-1.141
							c-0.807,0.199-1.16,1.146-1.261,1.97c-0.423,3.432,1.466,7.032,4.53,8.635"/>
					</g>
				</g>
				<g>
					<g>
						<g>
							<path style="fill:#263238;" d="M294.973,92.26c0.018-0.01,0.112,0.129,0.267,0.389c0.158,0.258,0.361,0.645,0.6,1.131
								c0.45,0.975,1.05,2.387,1.169,4.066c0.057,0.835-0.033,1.64-0.219,2.341c-0.184,0.705-0.484,1.291-0.757,1.762
								c-0.29,0.462-0.551,0.817-0.76,1.038c-0.202,0.227-0.32,0.345-0.336,0.331c-0.047-0.038,0.397-0.542,0.911-1.473
								c0.242-0.472,0.512-1.046,0.674-1.727c0.164-0.677,0.242-1.446,0.187-2.251c-0.113-1.616-0.666-3.012-1.063-3.999
								C295.227,92.88,294.93,92.283,294.973,92.26z"/>
						</g>
					</g>
				</g>
			</g>
		</g>
		<g>
			<g>
				<path style="fill:#263238;" d="M166.261,136.977v0.736h-5.695v-8.054h5.522v0.736h-4.671v2.865h4.165v0.725h-4.165v2.991
					H166.261z"/>
				<path style="fill:#263238;" d="M178.073,134.204v3.509h-0.817v-3.429c0-1.277-0.644-1.933-1.737-1.933
					c-1.243,0-2.025,0.805-2.025,2.186v3.175h-0.817v-3.429c0-1.277-0.644-1.933-1.749-1.933c-1.231,0-2.025,0.805-2.025,2.186
					v3.175h-0.817v-6.052h0.782v1.105c0.426-0.725,1.208-1.15,2.221-1.15c1.001,0,1.783,0.426,2.151,1.277
					c0.437-0.782,1.3-1.277,2.393-1.277C177.107,131.616,178.073,132.467,178.073,134.204z"/>
				<path style="fill:#263238;" d="M184.855,133.963v3.751h-0.782v-0.943c-0.368,0.621-1.082,1.001-2.083,1.001
					c-1.369,0-2.209-0.713-2.209-1.76c0-0.932,0.598-1.714,2.335-1.714h1.921v-0.368c0-1.036-0.587-1.599-1.714-1.599
					c-0.782,0-1.519,0.276-2.013,0.713l-0.368-0.61c0.61-0.518,1.507-0.817,2.462-0.817
					C183.969,131.616,184.855,132.398,184.855,133.963z M184.038,135.896v-0.989h-1.898c-1.173,0-1.553,0.46-1.553,1.081
					c0,0.702,0.564,1.139,1.53,1.139C183.037,137.127,183.716,136.69,184.038,135.896z"/>
				<path style="fill:#263238;" d="M186.888,129.752c0-0.311,0.265-0.575,0.598-0.575c0.334,0,0.598,0.253,0.598,0.563
					c0,0.334-0.253,0.598-0.598,0.598C187.153,130.339,186.888,130.074,186.888,129.752z M187.072,131.662h0.817v6.052h-0.817
					V131.662z"/>
				<path style="fill:#263238;" d="M190.166,129.177h0.817v8.537h-0.817V129.177z"/>
				<path style="fill:#263238;" d="M200.839,133.963v3.751h-0.782v-0.943c-0.368,0.621-1.082,1.001-2.083,1.001
					c-1.369,0-2.209-0.713-2.209-1.76c0-0.932,0.598-1.714,2.335-1.714h1.921v-0.368c0-1.036-0.587-1.599-1.714-1.599
					c-0.782,0-1.519,0.276-2.013,0.713l-0.368-0.61c0.61-0.518,1.507-0.817,2.462-0.817
					C199.954,131.616,200.839,132.398,200.839,133.963z M200.023,135.896v-0.989h-1.898c-1.173,0-1.553,0.46-1.553,1.081
					c0,0.702,0.564,1.139,1.53,1.139C199.022,137.127,199.7,136.69,200.023,135.896z"/>
				<path style="fill:#263238;" d="M208.603,129.177v8.537h-0.783v-1.197c-0.495,0.817-1.335,1.254-2.336,1.254
					c-1.726,0-3.014-1.254-3.014-3.083s1.288-3.072,3.014-3.072c0.966,0,1.795,0.414,2.301,1.196v-3.635H208.603z M207.797,134.688
					c0-1.415-0.966-2.358-2.243-2.358c-1.288,0-2.255,0.943-2.255,2.358c0,1.415,0.967,2.358,2.255,2.358
					C206.831,137.046,207.797,136.103,207.797,134.688z"/>
				<path style="fill:#263238;" d="M216.4,129.177v8.537h-0.783v-1.197c-0.495,0.817-1.334,1.254-2.335,1.254
					c-1.726,0-3.014-1.254-3.014-3.083s1.289-3.072,3.014-3.072c0.966,0,1.795,0.414,2.301,1.196v-3.635H216.4z M215.594,134.688
					c0-1.415-0.966-2.358-2.243-2.358c-1.289,0-2.255,0.943-2.255,2.358c0,1.415,0.967,2.358,2.255,2.358
					C214.628,137.046,215.594,136.103,215.594,134.688z"/>
				<path style="fill:#263238;" d="M221.722,131.616v0.794c-0.069,0-0.138-0.012-0.196-0.012c-1.266,0-2.036,0.805-2.036,2.232
					v3.083h-0.817v-6.052h0.782v1.185C219.836,132.042,220.606,131.616,221.722,131.616z"/>
				<path style="fill:#263238;" d="M228.405,134.941h-5.062c0.092,1.266,1.059,2.105,2.381,2.105c0.736,0,1.392-0.265,1.853-0.793
					l0.46,0.529c-0.541,0.645-1.38,0.99-2.335,0.99c-1.887,0-3.175-1.289-3.175-3.083c0-1.795,1.254-3.072,2.957-3.072
					c1.703,0,2.934,1.254,2.934,3.072C228.417,134.757,228.405,134.849,228.405,134.941z M223.343,134.331h4.292
					c-0.104-1.185-0.967-2.014-2.152-2.014C224.309,132.318,223.446,133.146,223.343,134.331z"/>
				<path style="fill:#263238;" d="M229.241,137.023l0.368-0.644c0.483,0.379,1.3,0.679,2.151,0.679c1.15,0,1.622-0.391,1.622-0.989
					c0-1.576-3.923-0.334-3.923-2.727c0-0.989,0.852-1.726,2.393-1.726c0.783,0,1.634,0.219,2.14,0.564l-0.356,0.656
					c-0.529-0.368-1.162-0.518-1.784-0.518c-1.093,0-1.576,0.426-1.576,1.001c0,1.634,3.923,0.403,3.923,2.727
					c0,1.047-0.92,1.726-2.497,1.726C230.702,137.771,229.736,137.449,229.241,137.023z"/>
				<path style="fill:#263238;" d="M234.865,137.023l0.368-0.644c0.483,0.379,1.3,0.679,2.151,0.679c1.15,0,1.622-0.391,1.622-0.989
					c0-1.576-3.923-0.334-3.923-2.727c0-0.989,0.852-1.726,2.393-1.726c0.783,0,1.634,0.219,2.14,0.564l-0.357,0.656
					c-0.529-0.368-1.162-0.518-1.783-0.518c-1.093,0-1.576,0.426-1.576,1.001c0,1.634,3.923,0.403,3.923,2.727
					c0,1.047-0.92,1.726-2.497,1.726C236.326,137.771,235.359,137.449,234.865,137.023z"/>
			</g>
			<g>
				<path style="fill:#E0E0E0;" d="M175.541,159.259h-5.062c0.092,1.266,1.059,2.105,2.381,2.105c0.736,0,1.392-0.265,1.853-0.793
					l0.46,0.529c-0.541,0.645-1.38,0.99-2.336,0.99c-1.887,0-3.175-1.289-3.175-3.084c0-1.795,1.254-3.072,2.957-3.072
					c1.703,0,2.934,1.254,2.934,3.072C175.553,159.075,175.541,159.167,175.541,159.259z M170.479,158.65h4.292
					c-0.104-1.185-0.967-2.014-2.152-2.014C171.445,156.636,170.583,157.465,170.479,158.65z"/>
				<path style="fill:#E0E0E0;" d="M180.9,162.032l-1.921-2.531l-1.933,2.531h-0.92l2.393-3.107l-2.278-2.945h0.92l1.818,2.37
					l1.818-2.37h0.897l-2.278,2.945l2.416,3.107H180.9z"/>
				<path style="fill:#E0E0E0;" d="M187.639,158.282v3.751h-0.782v-0.943c-0.368,0.621-1.082,1.001-2.083,1.001
					c-1.369,0-2.209-0.713-2.209-1.76c0-0.932,0.598-1.714,2.335-1.714h1.921v-0.368c0-1.036-0.587-1.599-1.714-1.599
					c-0.782,0-1.519,0.276-2.013,0.713l-0.368-0.61c0.61-0.518,1.507-0.817,2.462-0.817
					C186.753,155.934,187.639,156.717,187.639,158.282z M186.822,160.214v-0.989h-1.898c-1.173,0-1.553,0.46-1.553,1.082
					c0,0.702,0.564,1.139,1.53,1.139C185.821,161.445,186.5,161.008,186.822,160.214z"/>
				<path style="fill:#E0E0E0;" d="M199.842,158.523v3.509h-0.817v-3.429c0-1.277-0.644-1.933-1.737-1.933
					c-1.243,0-2.025,0.805-2.025,2.186v3.175h-0.817v-3.429c0-1.277-0.644-1.933-1.749-1.933c-1.231,0-2.025,0.805-2.025,2.186
					v3.175h-0.817v-6.052h0.782v1.104c0.426-0.725,1.208-1.15,2.221-1.15c1.001,0,1.783,0.426,2.151,1.277
					c0.437-0.782,1.3-1.277,2.393-1.277C198.876,155.934,199.842,156.786,199.842,158.523z"/>
				<path style="fill:#E0E0E0;" d="M208.189,159.006c0,1.841-1.288,3.084-3.014,3.084c-0.966,0-1.795-0.414-2.301-1.197v3.371
					h-0.817v-8.284h0.782v1.197c0.495-0.806,1.335-1.243,2.335-1.243C206.901,155.934,208.189,157.177,208.189,159.006z
					 M207.373,159.006c0-1.404-0.978-2.358-2.255-2.358c-1.288,0-2.255,0.955-2.255,2.358c0,1.415,0.966,2.358,2.255,2.358
					C206.395,161.365,207.373,160.421,207.373,159.006z"/>
				<path style="fill:#E0E0E0;" d="M209.854,153.495h0.817v8.537h-0.817V153.495z"/>
				<path style="fill:#E0E0E0;" d="M218.216,159.259h-5.062c0.092,1.266,1.059,2.105,2.381,2.105c0.736,0,1.392-0.265,1.852-0.793
					l0.46,0.529c-0.54,0.645-1.38,0.99-2.336,0.99c-1.887,0-3.175-1.289-3.175-3.084c0-1.795,1.254-3.072,2.957-3.072
					c1.703,0,2.934,1.254,2.934,3.072C218.228,159.075,218.216,159.167,218.216,159.259z M213.154,158.65h4.292
					c-0.104-1.185-0.967-2.014-2.152-2.014C214.121,156.636,213.258,157.465,213.154,158.65z"/>
				<path style="fill:#E0E0E0;" d="M230.052,158.983c0,1.956-0.725,3.107-1.91,3.107c-0.748,0-1.254-0.461-1.3-1.254
					c-0.46,0.794-1.288,1.254-2.301,1.254c-1.634,0-2.854-1.243-2.854-2.98c0-1.726,1.22-2.957,2.854-2.957
					c0.989,0,1.806,0.437,2.278,1.208v-1.162h0.748v4.36c0,0.644,0.322,0.874,0.713,0.874c0.713,0,1.173-0.886,1.173-2.439
					c0-2.704-1.944-4.498-4.729-4.498c-2.819,0-4.74,1.887-4.74,4.613c0,2.727,1.898,4.637,4.694,4.637
					c0.69,0,1.542-0.161,2.209-0.506l0.195,0.564c-0.69,0.357-1.634,0.529-2.404,0.529c-3.164,0-5.327-2.175-5.327-5.224
					c0-3.061,2.198-5.2,5.373-5.2C227.843,153.91,230.052,155.969,230.052,158.983z M226.831,159.11c0-1.392-0.943-2.29-2.186-2.29
					c-1.277,0-2.197,0.909-2.197,2.29c0,1.381,0.92,2.313,2.197,2.313C225.887,161.422,226.831,160.514,226.831,159.11z"/>
				<path style="fill:#E0E0E0;" d="M237.376,155.98v5.315c0,2.083-1.024,3.026-3.026,3.026c-1.104,0-2.186-0.333-2.819-0.932
					l0.414-0.621c0.575,0.518,1.45,0.829,2.382,0.829c1.53,0,2.232-0.702,2.232-2.198v-0.771c-0.506,0.771-1.369,1.174-2.359,1.174
					c-1.726,0-3.037-1.208-3.037-2.945c0-1.737,1.312-2.922,3.037-2.922c1.013,0,1.887,0.414,2.393,1.208v-1.162H237.376z
					 M236.582,158.857c0-1.312-0.966-2.209-2.301-2.209c-1.335,0-2.29,0.897-2.29,2.209c0,1.312,0.955,2.22,2.29,2.22
					C235.615,161.077,236.582,160.168,236.582,158.857z"/>
				<path style="fill:#E0E0E0;" d="M249.648,158.523v3.509h-0.817v-3.429c0-1.277-0.645-1.933-1.737-1.933
					c-1.243,0-2.025,0.805-2.025,2.186v3.175h-0.817v-3.429c0-1.277-0.644-1.933-1.748-1.933c-1.232,0-2.025,0.805-2.025,2.186
					v3.175h-0.817v-6.052h0.782v1.104c0.426-0.725,1.208-1.15,2.22-1.15c1.001,0,1.784,0.426,2.152,1.277
					c0.437-0.782,1.3-1.277,2.393-1.277C248.681,155.934,249.648,156.786,249.648,158.523z"/>
				<path style="fill:#E0E0E0;" d="M256.43,158.282v3.751h-0.783v-0.943c-0.368,0.621-1.081,1.001-2.082,1.001
					c-1.369,0-2.209-0.713-2.209-1.76c0-0.932,0.599-1.714,2.336-1.714h1.921v-0.368c0-1.036-0.587-1.599-1.714-1.599
					c-0.783,0-1.52,0.276-2.014,0.713l-0.368-0.61c0.609-0.518,1.507-0.817,2.462-0.817
					C255.544,155.934,256.43,156.717,256.43,158.282z M255.613,160.214v-0.989h-1.898c-1.174,0-1.553,0.46-1.553,1.082
					c0,0.702,0.563,1.139,1.53,1.139C254.612,161.445,255.291,161.008,255.613,160.214z"/>
				<path style="fill:#E0E0E0;" d="M258.464,154.071c0-0.311,0.265-0.575,0.598-0.575c0.334,0,0.599,0.253,0.599,0.563
					c0,0.334-0.253,0.598-0.599,0.598C258.728,154.657,258.464,154.393,258.464,154.071z M258.647,155.98h0.817v6.052h-0.817V155.98
					z"/>
				<path style="fill:#E0E0E0;" d="M261.74,153.495h0.817v8.537h-0.817V153.495z"/>
				<path style="fill:#E0E0E0;" d="M264.304,161.457c0-0.357,0.276-0.622,0.61-0.622c0.333,0,0.621,0.265,0.621,0.622
					c0,0.356-0.288,0.633-0.621,0.633C264.581,162.09,264.304,161.813,264.304,161.457z"/>
				<path style="fill:#E0E0E0;" d="M266.49,159.006c0-1.806,1.311-3.072,3.118-3.072c1.023,0,1.887,0.403,2.37,1.196l-0.61,0.414
					c-0.414-0.61-1.059-0.897-1.76-0.897c-1.323,0-2.29,0.943-2.29,2.358c0,1.427,0.967,2.358,2.29,2.358
					c0.701,0,1.346-0.276,1.76-0.886l0.61,0.414c-0.483,0.783-1.347,1.197-2.37,1.197C267.801,162.09,266.49,160.812,266.49,159.006
					z"/>
				<path style="fill:#E0E0E0;" d="M272.861,159.006c0-1.795,1.311-3.072,3.083-3.072c1.772,0,3.072,1.277,3.072,3.072
					c0,1.795-1.3,3.084-3.072,3.084C274.172,162.09,272.861,160.801,272.861,159.006z M278.188,159.006
					c0-1.415-0.955-2.358-2.244-2.358c-1.288,0-2.255,0.943-2.255,2.358c0,1.415,0.967,2.358,2.255,2.358
					C277.233,161.365,278.188,160.421,278.188,159.006z"/>
				<path style="fill:#E0E0E0;" d="M290.667,158.523v3.509h-0.816v-3.429c0-1.277-0.645-1.933-1.737-1.933
					c-1.242,0-2.024,0.805-2.024,2.186v3.175h-0.817v-3.429c0-1.277-0.645-1.933-1.749-1.933c-1.23,0-2.024,0.805-2.024,2.186v3.175
					h-0.817v-6.052h0.782v1.104c0.426-0.725,1.208-1.15,2.221-1.15c1.001,0,1.783,0.426,2.151,1.277
					c0.438-0.782,1.301-1.277,2.394-1.277C289.701,155.934,290.667,156.786,290.667,158.523z"/>
			</g>
			<g>
				<g>
					<path style="fill:#E0E0E0;" d="M373.817,172.389c-0.024-0.038,0.488,0.083,1.111-0.471c0.733-0.564,0.426-1.922,0.48-3.496
						c-0.011-3.226-0.028-7.965-0.049-14.066c-0.004-1.527-0.007-3.139-0.012-4.834c-0.001-0.424-0.002-0.853-0.003-1.287
						c-0.021-0.432,0.051-0.888-0.078-1.272c-0.127-0.392-0.425-0.731-0.808-0.907c-0.376-0.195-0.833-0.131-1.304-0.141
						c-3.717,0.007-7.754,0.014-12.092,0.021c-8.678,0.011-18.557,0.024-29.476,0.038c-43.691,0.02-104.031,0.047-170.677,0.076
						c-0.443-0.003-0.874,0.213-1.13,0.572c-0.286,0.363-0.274,0.791-0.265,1.339v3.111c0,2.071,0,4.135,0,6.193
						c0,4.115-0.001,8.203-0.001,12.261c0.011,0.486-0.024,1.063,0.024,1.472c0.075,0.419,0.359,0.798,0.742,0.985
						c0.19,0.095,0.402,0.146,0.615,0.147l0.756,0l1.512,0c2.014,0,4.02,0.001,6.018,0.001c3.996,0.001,7.96,0.002,11.889,0.002
						c15.716,0.005,30.875,0.01,45.317,0.015c28.88,0.021,54.888,0.04,76.732,0.056c21.835,0.035,39.506,0.063,51.73,0.083
						c6.1,0.021,10.839,0.038,14.064,0.049c1.601,0.011,2.823,0.02,3.658,0.026C373.395,172.372,373.817,172.389,373.817,172.389
						s-0.422,0.018-1.246,0.027c-0.834,0.006-2.057,0.014-3.658,0.026c-3.225,0.011-7.964,0.028-14.064,0.049
						c-12.224,0.02-29.895,0.048-51.73,0.083c-21.844,0.016-47.852,0.035-76.732,0.056c-14.441,0.005-29.601,0.01-45.317,0.015
						c-3.929,0.001-7.893,0.001-11.889,0.002c-1.998,0-4.004,0.001-6.018,0.001l-1.512,0l-0.758,0
						c-0.292-0.001-0.584-0.071-0.846-0.202c-0.526-0.257-0.915-0.775-1.019-1.353c-0.066-0.597-0.018-1.038-0.033-1.566
						c0-4.058-0.001-8.146-0.001-12.261c0-2.058,0-4.122,0-6.193l0-3.111c0.007-0.265-0.017-0.501,0.024-0.818
						c0.045-0.298,0.161-0.585,0.34-0.827c0.349-0.492,0.951-0.792,1.551-0.787c66.646,0.03,126.985,0.057,170.677,0.076
						c10.92,0.014,20.799,0.027,29.476,0.039c4.338,0.008,8.375,0.015,12.092,0.021c0.447,0.014,0.951-0.059,1.407,0.169
						c0.443,0.206,0.785,0.599,0.931,1.053c0.147,0.472,0.062,0.916,0.084,1.346c-0.001,0.434-0.002,0.863-0.003,1.287
						c-0.004,1.695-0.008,3.307-0.012,4.834c-0.021,6.101-0.038,10.84-0.049,14.066c-0.005,0.803-0.009,1.511-0.013,2.123
						c0.043,0.623-0.223,1.139-0.536,1.412C374.308,172.515,373.792,172.367,373.817,172.389z"/>
				</g>
			</g>
		</g>
		<g>
			<g>
				<path style="fill:#263238;" d="M166.87,192.837c0,1.714-1.242,2.75-3.291,2.75h-2.163v2.542h-0.852v-8.054h3.014
					C165.628,190.076,166.87,191.112,166.87,192.837z M166.019,192.837c0-1.288-0.852-2.025-2.462-2.025h-2.14v4.027h2.14
					C165.168,194.839,166.019,194.103,166.019,192.837z"/>
				<path style="fill:#263238;" d="M173.045,194.379v3.751h-0.782v-0.943c-0.368,0.621-1.081,1.001-2.082,1.001
					c-1.369,0-2.209-0.713-2.209-1.76c0-0.932,0.598-1.714,2.335-1.714h1.921v-0.368c0-1.036-0.587-1.599-1.714-1.599
					c-0.782,0-1.518,0.276-2.013,0.713l-0.368-0.61c0.61-0.518,1.507-0.817,2.462-0.817
					C172.159,192.032,173.045,192.814,173.045,194.379z M172.228,196.312v-0.989h-1.898c-1.173,0-1.553,0.46-1.553,1.081
					c0,0.702,0.564,1.139,1.53,1.139C171.227,197.543,171.906,197.106,172.228,196.312z"/>
				<path style="fill:#263238;" d="M174.423,197.439l0.368-0.644c0.483,0.379,1.3,0.679,2.151,0.679c1.15,0,1.622-0.391,1.622-0.989
					c0-1.576-3.923-0.334-3.923-2.727c0-0.989,0.852-1.725,2.393-1.725c0.783,0,1.634,0.219,2.14,0.563l-0.357,0.656
					c-0.529-0.368-1.162-0.518-1.783-0.518c-1.093,0-1.576,0.426-1.576,1.001c0,1.634,3.923,0.403,3.923,2.727
					c0,1.047-0.92,1.726-2.497,1.726C175.883,198.187,174.917,197.865,174.423,197.439z"/>
				<path style="fill:#263238;" d="M180.046,197.439l0.368-0.644c0.483,0.379,1.3,0.679,2.151,0.679c1.15,0,1.622-0.391,1.622-0.989
					c0-1.576-3.923-0.334-3.923-2.727c0-0.989,0.852-1.725,2.393-1.725c0.783,0,1.634,0.219,2.14,0.563l-0.356,0.656
					c-0.529-0.368-1.162-0.518-1.784-0.518c-1.093,0-1.576,0.426-1.576,1.001c0,1.634,3.923,0.403,3.923,2.727
					c0,1.047-0.92,1.726-2.497,1.726C181.507,198.187,180.541,197.865,180.046,197.439z"/>
				<path style="fill:#263238;" d="M195.276,192.078l-2.29,6.052h-0.771l-1.91-4.958l-1.91,4.958h-0.771l-2.278-6.052h0.782
					l1.898,5.143l1.944-5.143h0.702l1.933,5.143l1.921-5.143H195.276z"/>
				<path style="fill:#263238;" d="M195.72,195.104c0-1.795,1.311-3.072,3.083-3.072c1.771,0,3.072,1.277,3.072,3.072
					c0,1.795-1.3,3.083-3.072,3.083C197.032,198.187,195.72,196.899,195.72,195.104z M201.047,195.104
					c0-1.415-0.955-2.358-2.243-2.358c-1.288,0-2.255,0.943-2.255,2.358c0,1.415,0.967,2.358,2.255,2.358
					C200.092,197.462,201.047,196.519,201.047,195.104z"/>
				<path style="fill:#263238;" d="M206.589,192.032v0.794c-0.069,0-0.138-0.012-0.196-0.012c-1.266,0-2.036,0.805-2.036,2.232
					v3.083h-0.817v-6.052h0.782v1.185C204.702,192.458,205.473,192.032,206.589,192.032z"/>
				<path style="fill:#263238;" d="M213.525,189.593v8.537h-0.783v-1.197c-0.495,0.817-1.334,1.254-2.335,1.254
					c-1.726,0-3.014-1.254-3.014-3.083s1.289-3.072,3.014-3.072c0.966,0,1.795,0.414,2.301,1.196v-3.635H213.525z M212.719,195.104
					c0-1.415-0.966-2.358-2.243-2.358c-1.289,0-2.255,0.943-2.255,2.358c0,1.415,0.967,2.358,2.255,2.358
					C211.753,197.462,212.719,196.519,212.719,195.104z"/>
			</g>
			<g>
				<path style="fill:#E0E0E0;" d="M176.14,222.471v0.736h-5.695v-8.054h5.522v0.736h-4.671v2.865h4.165v0.725h-4.165v2.991H176.14z
					"/>
				<path style="fill:#E0E0E0;" d="M183.534,219.699v3.509h-0.817v-3.429c0-1.277-0.667-1.933-1.818-1.933
					c-1.3,0-2.117,0.805-2.117,2.186v3.175h-0.817v-6.052h0.782v1.116c0.437-0.736,1.254-1.162,2.301-1.162
					C182.521,217.11,183.534,217.961,183.534,219.699z"/>
				<path style="fill:#E0E0E0;" d="M188.937,222.84c-0.322,0.288-0.805,0.426-1.277,0.426c-1.139,0-1.772-0.645-1.772-1.76v-3.659
					h-1.081v-0.69h1.081v-1.323h0.817v1.323h1.841v0.69h-1.841v3.613c0,0.713,0.368,1.104,1.047,1.104
					c0.333,0,0.667-0.104,0.897-0.311L188.937,222.84z"/>
				<path style="fill:#E0E0E0;" d="M195.47,220.435h-5.062c0.092,1.266,1.059,2.105,2.381,2.105c0.736,0,1.392-0.265,1.852-0.794
					l0.46,0.529c-0.541,0.645-1.38,0.99-2.335,0.99c-1.887,0-3.175-1.288-3.175-3.083c0-1.795,1.254-3.072,2.956-3.072
					c1.703,0,2.934,1.254,2.934,3.072C195.482,220.251,195.47,220.343,195.47,220.435z M190.408,219.826h4.291
					c-0.104-1.185-0.967-2.014-2.152-2.014C191.374,217.812,190.511,218.64,190.408,219.826z"/>
				<path style="fill:#E0E0E0;" d="M200.195,217.11v0.794c-0.069,0-0.138-0.012-0.196-0.012c-1.266,0-2.036,0.805-2.036,2.232v3.083
					h-0.817v-6.052h0.782v1.185C198.308,217.536,199.079,217.11,200.195,217.11z"/>
				<path style="fill:#E0E0E0;" d="M210.903,220.182c0,1.841-1.289,3.083-3.015,3.083c-0.966,0-1.795-0.414-2.301-1.197v3.371
					h-0.817v-8.284h0.782v1.197c0.495-0.806,1.334-1.243,2.335-1.243C209.614,217.11,210.903,218.353,210.903,220.182z
					 M210.086,220.182c0-1.404-0.978-2.358-2.255-2.358c-1.289,0-2.255,0.955-2.255,2.358c0,1.415,0.966,2.358,2.255,2.358
					C209.108,222.54,210.086,221.597,210.086,220.182z"/>
				<path style="fill:#E0E0E0;" d="M217.101,219.457v3.75h-0.782v-0.943c-0.368,0.621-1.081,1.001-2.083,1.001
					c-1.369,0-2.209-0.713-2.209-1.76c0-0.932,0.598-1.714,2.335-1.714h1.921v-0.368c0-1.036-0.587-1.599-1.714-1.599
					c-0.782,0-1.519,0.276-2.013,0.713l-0.368-0.61c0.61-0.518,1.507-0.817,2.462-0.817
					C216.215,217.11,217.101,217.892,217.101,219.457z M216.284,221.39v-0.989h-1.898c-1.173,0-1.553,0.46-1.553,1.081
					c0,0.702,0.564,1.139,1.53,1.139C215.283,222.621,215.962,222.184,216.284,221.39z"/>
				<path style="fill:#E0E0E0;" d="M218.478,222.517l0.368-0.644c0.483,0.379,1.3,0.679,2.151,0.679c1.15,0,1.622-0.391,1.622-0.989
					c0-1.576-3.923-0.334-3.923-2.727c0-0.989,0.852-1.726,2.393-1.726c0.783,0,1.634,0.219,2.14,0.564l-0.357,0.656
					c-0.529-0.368-1.162-0.518-1.783-0.518c-1.093,0-1.576,0.426-1.576,1.001c0,1.634,3.923,0.403,3.923,2.727
					c0,1.047-0.92,1.726-2.497,1.726C219.939,223.265,218.973,222.943,218.478,222.517z"/>
				<path style="fill:#E0E0E0;" d="M224.102,222.517l0.368-0.644c0.483,0.379,1.3,0.679,2.151,0.679c1.15,0,1.622-0.391,1.622-0.989
					c0-1.576-3.923-0.334-3.923-2.727c0-0.989,0.851-1.726,2.393-1.726c0.783,0,1.634,0.219,2.14,0.564l-0.357,0.656
					c-0.529-0.368-1.162-0.518-1.784-0.518c-1.093,0-1.576,0.426-1.576,1.001c0,1.634,3.923,0.403,3.923,2.727
					c0,1.047-0.92,1.726-2.497,1.726C225.563,223.265,224.596,222.943,224.102,222.517z"/>
				<path style="fill:#E0E0E0;" d="M239.332,217.156l-2.29,6.052h-0.771l-1.91-4.958l-1.91,4.958h-0.771l-2.278-6.052h0.782
					l1.898,5.143l1.944-5.143h0.702l1.933,5.143l1.921-5.143H239.332z"/>
				<path style="fill:#E0E0E0;" d="M239.776,220.182c0-1.795,1.311-3.072,3.083-3.072c1.771,0,3.072,1.277,3.072,3.072
					c0,1.795-1.3,3.083-3.072,3.083C241.087,223.265,239.776,221.977,239.776,220.182z M245.103,220.182
					c0-1.415-0.955-2.358-2.243-2.358c-1.289,0-2.255,0.943-2.255,2.358c0,1.415,0.967,2.358,2.255,2.358
					C244.148,222.54,245.103,221.597,245.103,220.182z"/>
				<path style="fill:#E0E0E0;" d="M250.645,217.11v0.794c-0.069,0-0.138-0.012-0.196-0.012c-1.266,0-2.036,0.805-2.036,2.232v3.083
					h-0.817v-6.052h0.782v1.185C248.758,217.536,249.529,217.11,250.645,217.11z"/>
				<path style="fill:#E0E0E0;" d="M257.581,214.671v8.537h-0.782v-1.197c-0.495,0.817-1.335,1.254-2.336,1.254
					c-1.725,0-3.015-1.254-3.015-3.083c0-1.829,1.289-3.072,3.015-3.072c0.967,0,1.795,0.414,2.301,1.196v-3.635H257.581z
					 M256.775,220.182c0-1.415-0.966-2.358-2.243-2.358c-1.289,0-2.255,0.943-2.255,2.358c0,1.415,0.966,2.358,2.255,2.358
					C255.809,222.54,256.775,221.597,256.775,220.182z"/>
			</g>
			<g>
				<path style="fill:#E8505B;" d="M325.015,215.89v3.164h4.165v0.736h-4.165v3.417h-0.852v-8.054h5.522v0.736H325.015z"/>
				<path style="fill:#E8505B;" d="M330.454,220.182c0-1.795,1.311-3.072,3.083-3.072c1.772,0,3.072,1.277,3.072,3.072
					c0,1.795-1.3,3.083-3.072,3.083C331.765,223.265,330.454,221.977,330.454,220.182z M335.781,220.182
					c0-1.415-0.955-2.358-2.244-2.358c-1.288,0-2.255,0.943-2.255,2.358c0,1.415,0.967,2.358,2.255,2.358
					C334.826,222.54,335.781,221.597,335.781,220.182z"/>
				<path style="fill:#E8505B;" d="M341.323,217.11v0.794c-0.068,0-0.138-0.012-0.195-0.012c-1.266,0-2.036,0.805-2.036,2.232v3.083
					h-0.817v-6.052h0.782v1.185C339.436,217.536,340.208,217.11,341.323,217.11z"/>
				<path style="fill:#E8505B;" d="M348.339,217.156v5.315c0,2.083-1.024,3.026-3.026,3.026c-1.104,0-2.185-0.334-2.818-0.932
					l0.414-0.621c0.575,0.518,1.449,0.829,2.382,0.829c1.53,0,2.231-0.702,2.231-2.198v-0.771c-0.506,0.771-1.369,1.174-2.358,1.174
					c-1.726,0-3.037-1.208-3.037-2.945s1.311-2.922,3.037-2.922c1.013,0,1.887,0.414,2.394,1.208v-1.162H348.339z M347.546,220.033
					c0-1.312-0.967-2.209-2.301-2.209c-1.335,0-2.29,0.897-2.29,2.209c0,1.312,0.955,2.22,2.29,2.22
					C346.579,222.253,347.546,221.344,347.546,220.033z"/>
				<path style="fill:#E8505B;" d="M350.015,220.182c0-1.795,1.311-3.072,3.083-3.072c1.772,0,3.072,1.277,3.072,3.072
					c0,1.795-1.3,3.083-3.072,3.083C351.327,223.265,350.015,221.977,350.015,220.182z M355.342,220.182
					c0-1.415-0.955-2.358-2.244-2.358c-1.288,0-2.255,0.943-2.255,2.358c0,1.415,0.967,2.358,2.255,2.358
					C354.387,222.54,355.342,221.597,355.342,220.182z"/>
				<path style="fill:#E8505B;" d="M361.022,222.84c-0.322,0.288-0.806,0.426-1.277,0.426c-1.139,0-1.771-0.645-1.771-1.76v-3.659
					h-1.082v-0.69h1.082v-1.323h0.816v1.323h1.841v0.69h-1.841v3.613c0,0.713,0.368,1.104,1.047,1.104
					c0.334,0,0.668-0.104,0.897-0.311L361.022,222.84z"/>
				<path style="fill:#E8505B;" d="M365.967,217.214c0-0.829-0.68-1.404-1.852-1.404c-0.979,0-1.691,0.322-2.197,0.932l-0.61-0.46
					c0.621-0.759,1.576-1.196,2.865-1.196c1.61,0,2.646,0.771,2.646,2.002c0,1.967-2.105,2.059-2.105,3.705h-0.85
					C363.862,218.893,365.967,218.721,365.967,217.214z M363.689,222.667c0-0.334,0.265-0.587,0.599-0.587
					c0.345,0,0.609,0.253,0.609,0.587c0,0.322-0.265,0.598-0.609,0.598C363.954,223.265,363.689,222.989,363.689,222.667z"/>
			</g>
			<g>
				<g>
					<path style="fill:#E0E0E0;" d="M373.817,233.566c-0.024-0.038,0.488,0.083,1.111-0.471c0.733-0.564,0.426-1.922,0.48-3.496
						c-0.011-3.226-0.028-7.965-0.049-14.066c-0.004-1.527-0.007-3.139-0.012-4.834c-0.001-0.424-0.002-0.853-0.003-1.287
						c-0.021-0.432,0.051-0.888-0.078-1.272c-0.127-0.392-0.425-0.731-0.808-0.907c-0.376-0.195-0.833-0.131-1.304-0.141
						c-3.717,0.007-7.754,0.014-12.092,0.021c-8.678,0.011-18.557,0.024-29.476,0.039c-43.691,0.02-104.031,0.046-170.677,0.076
						c-0.443-0.003-0.874,0.213-1.13,0.572c-0.286,0.363-0.274,0.791-0.265,1.339v3.111c0,2.071,0,4.135,0,6.193
						c0,4.115-0.001,8.203-0.001,12.261c0.011,0.486-0.024,1.063,0.024,1.472c0.075,0.419,0.359,0.798,0.742,0.985
						c0.19,0.095,0.402,0.146,0.615,0.147l0.756,0l1.512,0c2.014,0,4.02,0.001,6.018,0.001c3.996,0.001,7.96,0.002,11.889,0.002
						c15.716,0.005,30.875,0.01,45.317,0.015c28.88,0.021,54.888,0.04,76.732,0.056c21.835,0.035,39.506,0.063,51.73,0.083
						c6.1,0.021,10.839,0.038,14.064,0.049c1.601,0.011,2.823,0.02,3.658,0.026C373.395,233.548,373.817,233.566,373.817,233.566
						s-0.422,0.018-1.246,0.027c-0.834,0.006-2.057,0.014-3.658,0.026c-3.225,0.011-7.964,0.028-14.064,0.049
						c-12.224,0.02-29.895,0.048-51.73,0.083c-21.844,0.016-47.852,0.035-76.732,0.056c-14.441,0.005-29.601,0.01-45.317,0.015
						c-3.929,0.001-7.893,0.001-11.889,0.002c-1.998,0-4.004,0.001-6.018,0.001l-1.512,0l-0.758,0
						c-0.292-0.001-0.584-0.071-0.846-0.202c-0.526-0.257-0.915-0.775-1.019-1.353c-0.066-0.597-0.018-1.038-0.033-1.566
						c0-4.058-0.001-8.146-0.001-12.261c0-2.058,0-4.122,0-6.193l0-3.111c0.007-0.265-0.017-0.501,0.024-0.818
						c0.045-0.298,0.161-0.585,0.34-0.827c0.349-0.492,0.951-0.792,1.551-0.787c66.646,0.03,126.985,0.057,170.677,0.076
						c10.92,0.014,20.799,0.027,29.476,0.039c4.338,0.008,8.375,0.015,12.092,0.021c0.447,0.014,0.951-0.059,1.407,0.169
						c0.443,0.206,0.785,0.599,0.931,1.053c0.147,0.472,0.062,0.916,0.084,1.346c-0.001,0.434-0.002,0.863-0.003,1.287
						c-0.004,1.695-0.008,3.307-0.012,4.834c-0.021,6.101-0.038,10.84-0.049,14.066c-0.005,0.803-0.009,1.511-0.013,2.123
						c0.043,0.623-0.223,1.139-0.536,1.412C374.308,233.691,373.792,233.543,373.817,233.566z"/>
				</g>
			</g>
		</g>
		<g>
			<g>
				<path style="fill:#263238;" d="M245.692,329.981l0.334-0.656c0.575,0.564,1.599,0.978,2.658,0.978
					c1.507,0,2.163-0.632,2.163-1.426c0-2.209-4.959-0.852-4.959-3.832c0-1.185,0.92-2.209,2.968-2.209
					c0.909,0,1.852,0.265,2.497,0.714l-0.288,0.679c-0.691-0.448-1.496-0.667-2.209-0.667c-1.473,0-2.128,0.655-2.128,1.461
					c0,2.209,4.958,0.874,4.958,3.808c0,1.186-0.943,2.198-3.003,2.198C247.476,331.028,246.291,330.602,245.692,329.981z"/>
				<path style="fill:#263238;" d="M253.179,322.996c0-0.31,0.265-0.575,0.598-0.575c0.334,0,0.599,0.253,0.599,0.564
					c0,0.333-0.253,0.598-0.599,0.598C253.444,323.583,253.179,323.319,253.179,322.996z M253.363,324.907h0.817v6.052h-0.817
					V324.907z"/>
				<path style="fill:#263238;" d="M262.024,327.449v3.509h-0.816v-3.429c0-1.277-0.667-1.933-1.817-1.933
					c-1.301,0-2.117,0.806-2.117,2.186v3.176h-0.817v-6.052h0.782v1.116c0.438-0.736,1.255-1.162,2.302-1.162
					C261.012,324.861,262.024,325.712,262.024,327.449z"/>
				<path style="fill:#263238;" d="M269.868,324.907v5.315c0,2.082-1.024,3.025-3.026,3.025c-1.104,0-2.186-0.333-2.818-0.932
					l0.414-0.621c0.575,0.518,1.45,0.828,2.382,0.828c1.53,0,2.231-0.701,2.231-2.197v-0.771c-0.506,0.771-1.369,1.173-2.358,1.173
					c-1.726,0-3.037-1.208-3.037-2.945s1.311-2.922,3.037-2.922c1.013,0,1.887,0.414,2.394,1.208v-1.162H269.868z M269.074,327.783
					c0-1.311-0.967-2.209-2.301-2.209c-1.335,0-2.29,0.897-2.29,2.209c0,1.312,0.955,2.221,2.29,2.221
					C268.107,330.003,269.074,329.094,269.074,327.783z"/>
				<path style="fill:#263238;" d="M280.62,324.907v6.052h-0.782v-1.105c-0.426,0.736-1.208,1.162-2.175,1.162
					c-1.542,0-2.555-0.863-2.555-2.6v-3.509h0.817v3.429c0,1.288,0.667,1.944,1.817,1.944c1.266,0,2.06-0.817,2.06-2.197v-3.176
					H280.62z"/>
				<path style="fill:#263238;" d="M289.038,327.933c0,1.841-1.289,3.083-3.015,3.083c-0.967,0-1.795-0.414-2.301-1.196v3.371
					h-0.817v-8.284h0.782v1.196c0.495-0.805,1.335-1.242,2.336-1.242C287.749,324.861,289.038,326.103,289.038,327.933z
					 M288.22,327.933c0-1.404-0.978-2.359-2.255-2.359c-1.288,0-2.255,0.955-2.255,2.359c0,1.415,0.967,2.358,2.255,2.358
					C287.243,330.291,288.22,329.348,288.22,327.933z"/>
			</g>
			<g>
				<g>
					<path style="fill:#263238;" d="M373.817,340.877c-0.024-0.039,0.488,0.083,1.111-0.471c0.733-0.564,0.426-1.922,0.48-3.496
						c-0.011-3.226-0.028-7.965-0.049-14.066c-0.004-1.527-0.007-3.139-0.012-4.834c-0.001-0.424-0.002-0.853-0.003-1.287
						c-0.021-0.432,0.051-0.889-0.078-1.272c-0.127-0.392-0.425-0.731-0.808-0.907c-0.376-0.195-0.833-0.131-1.304-0.141
						c-3.717,0.007-7.754,0.014-12.092,0.021c-8.678,0.011-18.557,0.024-29.476,0.039c-43.691,0.02-104.031,0.046-170.677,0.076
						c-0.443-0.003-0.874,0.213-1.13,0.572c-0.286,0.363-0.274,0.791-0.265,1.339v3.111c0,2.071,0,4.135,0,6.193
						c0,4.115-0.001,8.203-0.001,12.261c0.011,0.486-0.024,1.063,0.024,1.472c0.075,0.419,0.359,0.798,0.742,0.985
						c0.19,0.095,0.402,0.146,0.615,0.147l0.756,0l1.512,0c2.014,0,4.02,0.001,6.018,0.001c3.996,0.001,7.96,0.002,11.889,0.002
						c15.716,0.005,30.875,0.01,45.317,0.015c28.88,0.021,54.888,0.04,76.732,0.056c21.835,0.035,39.506,0.063,51.73,0.083
						c6.1,0.021,10.839,0.038,14.064,0.049c1.601,0.011,2.823,0.02,3.658,0.026C373.395,340.859,373.817,340.877,373.817,340.877
						s-0.422,0.018-1.246,0.027c-0.834,0.006-2.057,0.014-3.658,0.026c-3.225,0.011-7.964,0.028-14.064,0.049
						c-12.224,0.02-29.895,0.048-51.73,0.083c-21.844,0.016-47.852,0.035-76.732,0.056c-14.441,0.005-29.601,0.01-45.317,0.015
						c-3.929,0.001-7.893,0.002-11.889,0.002c-1.998,0-4.004,0.001-6.018,0.001l-1.512,0l-0.758,0
						c-0.292-0.002-0.584-0.071-0.846-0.202c-0.526-0.258-0.915-0.775-1.019-1.353c-0.066-0.597-0.018-1.038-0.033-1.566
						c0-4.058-0.001-8.146-0.001-12.261c0-2.057,0-4.122,0-6.193l0-3.111c0.007-0.265-0.017-0.501,0.024-0.818
						c0.045-0.298,0.161-0.585,0.34-0.827c0.349-0.492,0.951-0.792,1.551-0.787c66.646,0.03,126.985,0.057,170.677,0.076
						c10.92,0.014,20.799,0.027,29.476,0.039c4.338,0.008,8.375,0.015,12.092,0.021c0.447,0.014,0.951-0.059,1.407,0.169
						c0.443,0.206,0.785,0.599,0.931,1.054c0.147,0.472,0.062,0.916,0.084,1.346c-0.001,0.434-0.002,0.863-0.003,1.287
						c-0.004,1.695-0.008,3.307-0.012,4.834c-0.021,6.101-0.038,10.84-0.049,14.066c-0.005,0.803-0.009,1.511-0.013,2.123
						c0.043,0.623-0.223,1.138-0.536,1.412C374.308,341.002,373.792,340.854,373.817,340.877z"/>
				</g>
			</g>
		</g>
		<g>
			<g>
				<path style="fill:#E8505B;" d="M364.393,291.322H170.322c-6.113,0-11.068-4.955-11.068-11.068v-4.463
					c0-6.113,4.955-11.068,11.068-11.068h194.071c6.113,0,11.068,4.955,11.068,11.068v4.463
					C375.461,286.367,370.505,291.322,364.393,291.322z"/>
			</g>
			<g>
				<path style="fill:#FFFFFF;" d="M250.833,273.291h0.851v7.317h4.511v0.736h-5.362V273.291z"/>
				<path style="fill:#FFFFFF;" d="M256.732,278.32c0-1.795,1.311-3.072,3.083-3.072c1.772,0,3.072,1.277,3.072,3.072
					c0,1.794-1.3,3.083-3.072,3.083C258.044,281.403,256.732,280.114,256.732,278.32z M262.059,278.32
					c0-1.416-0.955-2.359-2.244-2.359c-1.288,0-2.255,0.943-2.255,2.359c0,1.415,0.967,2.358,2.255,2.358
					C261.104,280.678,262.059,279.735,262.059,278.32z"/>
				<path style="fill:#FFFFFF;" d="M270.156,275.293v5.315c0,2.082-1.024,3.025-3.026,3.025c-1.104,0-2.185-0.333-2.818-0.932
					l0.414-0.621c0.575,0.518,1.449,0.828,2.382,0.828c1.53,0,2.231-0.701,2.231-2.197v-0.77c-0.506,0.77-1.369,1.173-2.358,1.173
					c-1.726,0-3.037-1.208-3.037-2.945c0-1.737,1.311-2.922,3.037-2.922c1.013,0,1.887,0.414,2.394,1.208v-1.162H270.156z
					 M269.362,278.169c0-1.312-0.967-2.209-2.301-2.209c-1.335,0-2.29,0.897-2.29,2.209c0,1.311,0.955,2.221,2.29,2.221
					C268.395,280.39,269.362,279.481,269.362,278.169z"/>
				<path style="fill:#FFFFFF;" d="M275.27,273.383c0-0.31,0.265-0.575,0.598-0.575c0.334,0,0.599,0.253,0.599,0.565
					c0,0.333-0.253,0.598-0.599,0.598C275.535,273.97,275.27,273.705,275.27,273.383z M275.454,275.293h0.817v6.052h-0.817V275.293z
					"/>
				<path style="fill:#FFFFFF;" d="M284.116,277.836v3.509h-0.816v-3.429c0-1.277-0.667-1.933-1.817-1.933
					c-1.301,0-2.117,0.806-2.117,2.186v3.176h-0.817v-6.052h0.782v1.116c0.438-0.736,1.255-1.162,2.302-1.162
					C283.104,275.247,284.116,276.099,284.116,277.836z"/>
			</g>
		</g>
	</g>
</g>
<g id="Character">
	<g>
		<g>
			<g>
				<g>
					<g>
						<g>
							<g>
								<path style="fill:#E8505B;" d="M46.602,440.825l-1.297,7.355l1.094,0.242c4.877,1.032,24.868,4.904,28.31,4.415
									c3.839-0.546-10.78-6.294-10.78-6.294l0.459-3.107L46.602,440.825z"/>
							</g>
						</g>
					</g>
					<g style="opacity:0.5;">
						<g>
							<g>
								<path style="fill:#FFFFFF;" d="M51.79,449.037c-0.024-1.528-0.639-3.04-1.688-4.151s-2.442-1.827-3.967-1.939l-0.773,4.981
									L51.79,449.037z"/>
							</g>
						</g>
					</g>
				</g>
				<g>
					<g>
						<g style="opacity:0.5;">
							<path style="fill:#FFFFFF;" d="M71.032,449.615c0,0,5.072,2.35,4.275,3.122c-0.797,0.772-21.147-2.381-30.002-4.557
								l0.09-0.394l23.706,3.88C69.101,451.666,69.988,449.498,71.032,449.615z"/>
						</g>
					</g>
				</g>
				<g>
					<g>
						<g>
							<g>
								<path style="fill:#263238;" d="M45.117,447.732c-0.001,0.008,0.102,0.035,0.301,0.081c0.262,0.057,0.548,0.119,0.872,0.189
									c0.874,0.174,1.949,0.389,3.218,0.641c2.721,0.522,6.489,1.194,10.667,1.845c4.179,0.65,7.974,1.156,10.724,1.486
									c1.285,0.145,2.374,0.267,3.26,0.367c0.33,0.031,0.621,0.059,0.888,0.085c0.203,0.017,0.31,0.022,0.311,0.015
									c0.001-0.008-0.105-0.027-0.306-0.059c-0.265-0.038-0.556-0.079-0.883-0.125c-0.883-0.119-1.969-0.264-3.251-0.436
									c-2.745-0.369-6.534-0.899-10.71-1.548c-4.175-0.651-7.945-1.298-10.672-1.781c-1.273-0.226-2.352-0.417-3.23-0.573
									c-0.326-0.055-0.616-0.104-0.88-0.149C45.225,447.737,45.119,447.724,45.117,447.732z"/>
							</g>
						</g>
					</g>
				</g>
				<g>
					<g>
						<g>
							<g>
								<path style="fill:#263238;" d="M69.053,451.942c0.065,0.018,0.235-0.747,0.845-1.453c0.597-0.716,1.325-1.008,1.297-1.069
									c-0.005-0.056-0.82,0.162-1.463,0.928C69.08,451.106,68.998,451.947,69.053,451.942z"/>
							</g>
						</g>
					</g>
				</g>
				<g>
					<g>
						<g>
							<g>
								<path style="fill:#263238;" d="M64.208,448.459c0.045,0.04,0.344-0.227,0.668-0.597c0.323-0.369,0.549-0.701,0.503-0.741
									c-0.045-0.04-0.344,0.227-0.668,0.597S64.162,448.419,64.208,448.459z"/>
							</g>
						</g>
					</g>
				</g>
				<g>
					<g>
						<g>
							<g>
								<path style="fill:#263238;" d="M62.883,447.473c0.033,0.051,0.344-0.094,0.693-0.322c0.35-0.228,0.607-0.454,0.574-0.505
									c-0.033-0.051-0.343,0.093-0.693,0.322C63.107,447.196,62.85,447.422,62.883,447.473z"/>
							</g>
						</g>
					</g>
				</g>
				<g>
					<g>
						<g>
							<g>
								<path style="fill:#263238;" d="M62.231,445.649c-0.01,0.06,0.398,0.177,0.911,0.263c0.513,0.086,0.938,0.106,0.947,0.047
									c0.01-0.06-0.398-0.177-0.912-0.263C62.665,445.611,62.241,445.59,62.231,445.649z"/>
							</g>
						</g>
					</g>
				</g>
				<g>
					<g>
						<g>
							<g>
								<path style="fill:#263238;" d="M62.102,444.414c-0.028,0.05,0.394,0.325,0.991,0.463c0.597,0.141,1.097,0.081,1.094,0.023
									c0-0.063-0.477-0.102-1.044-0.236C62.575,444.534,62.13,444.358,62.102,444.414z"/>
							</g>
						</g>
					</g>
				</g>
				<g>
					<g>
						<g>
							<g>
								<path style="fill:#263238;" d="M65.053,446.998c-0.005,0.024,0.426,0.146,1.147,0.17c0.359,0.012,0.789-0.007,1.261-0.08
									c0.236-0.045,0.478-0.068,0.743-0.179c0.125-0.058,0.267-0.145,0.339-0.312c0.074-0.164,0.012-0.371-0.103-0.485
									c-1.007-0.737-2.199-0.291-2.693,0.212c-0.269,0.254-0.414,0.52-0.492,0.706c-0.076,0.189-0.09,0.301-0.078,0.305
									c0.038,0.021,0.147-0.439,0.673-0.896c0.259-0.224,0.63-0.423,1.077-0.484c0.423-0.057,1.004,0,1.351,0.304
									c0.161,0.163,0.057,0.366-0.164,0.455c-0.207,0.092-0.463,0.129-0.687,0.175c-0.457,0.082-0.875,0.116-1.227,0.124
									C65.495,447.029,65.059,446.963,65.053,446.998z"/>
							</g>
						</g>
					</g>
				</g>
				<g>
					<g>
						<g>
							<g>
								<path style="fill:#263238;" d="M65.341,447.101c0.014,0.015,0.229-0.251,0.255-0.775c0.011-0.257-0.035-0.571-0.183-0.885
									c-0.163-0.285-0.369-0.676-0.863-0.732c-0.271-0.007-0.447,0.275-0.435,0.474c-0.01,0.204,0.053,0.39,0.115,0.542
									c0.126,0.312,0.283,0.574,0.434,0.777c0.305,0.406,0.568,0.585,0.584,0.565c0.024-0.025-0.196-0.241-0.456-0.652
									c-0.129-0.206-0.264-0.462-0.373-0.762c-0.12-0.267-0.16-0.718,0.135-0.725c0.291,0.017,0.539,0.347,0.679,0.603
									c0.142,0.276,0.2,0.558,0.209,0.795C65.457,446.806,65.304,447.086,65.341,447.101z"/>
							</g>
						</g>
					</g>
				</g>
				<g>
					<g>
						<g>
							<g>
								<path style="fill:#263238;" d="M46.237,442.911c-0.002,0.041,0.518,0.03,1.309,0.25c0.784,0.212,1.843,0.712,2.689,1.629
									c0.845,0.919,1.255,2.016,1.402,2.815c0.154,0.806,0.1,1.324,0.141,1.325c0.013,0.001,0.04-0.126,0.056-0.359
									c0.017-0.233,0.014-0.575-0.045-0.991c-0.111-0.827-0.513-1.979-1.394-2.937c-0.882-0.957-1.997-1.452-2.812-1.631
									c-0.41-0.093-0.75-0.125-0.984-0.127C46.366,442.882,46.237,442.898,46.237,442.911z"/>
							</g>
						</g>
					</g>
				</g>
				<g>
					<g>
						<g>
							<g>
								<path style="fill:#263238;" d="M54.302,447.647c-0.016,0.055,1.116,0.425,2.562,0.661c1.446,0.24,2.637,0.252,2.639,0.195
									c0.004-0.064-1.171-0.173-2.604-0.411C55.467,447.859,54.319,447.586,54.302,447.647z"/>
							</g>
						</g>
					</g>
				</g>
				<g>
					<g>
						<g>
							<g>
								<path style="fill:#263238;" d="M50.81,447.101c-0.05,0.037,0.057,0.261,0.134,0.547c0.082,0.285,0.106,0.532,0.168,0.538
									c0.058,0.009,0.135-0.267,0.043-0.596C51.064,447.259,50.855,447.064,50.81,447.101z"/>
							</g>
						</g>
					</g>
				</g>
				<g>
					<g>
						<g>
							<g>
								<path style="fill:#263238;" d="M49.747,445.258c-0.049,0.035,0.037,0.239,0.193,0.454c0.155,0.216,0.321,0.362,0.37,0.326
									c0.049-0.035-0.037-0.238-0.193-0.454C49.962,445.369,49.796,445.223,49.747,445.258z"/>
							</g>
						</g>
					</g>
				</g>
				<g>
					<g>
						<g>
							<g>
								<path style="fill:#263238;" d="M47.979,444.218c0.003,0.062,0.24,0.097,0.488,0.23c0.25,0.127,0.415,0.301,0.468,0.268
									c0.053-0.025-0.058-0.302-0.367-0.462C48.261,444.092,47.97,444.16,47.979,444.218z"/>
							</g>
						</g>
					</g>
				</g>
				<g>
					<g>
						<g>
							<g>
								<path style="fill:#263238;" d="M46.693,443.657c-0.03,0.052,0.058,0.16,0.197,0.24c0.139,0.08,0.276,0.103,0.306,0.051
									c0.03-0.052-0.058-0.16-0.197-0.24C46.861,443.627,46.723,443.605,46.693,443.657z"/>
							</g>
						</g>
					</g>
				</g>
			</g>
		</g>
		<g>
			<g>
				<g>
					<g>
						<g>
							<g>
								<path style="fill:#E8505B;" d="M140.4,447.113l0.669,7.438l1.119-0.053c4.977-0.277,25.286-1.759,28.481-3.13
									c3.563-1.53-12.049-3.261-12.049-3.261l-0.368-3.12L140.4,447.113z"/>
							</g>
						</g>
					</g>
					<g style="opacity:0.5;">
						<g>
							<g>
								<path style="fill:#FFFFFF;" d="M147.553,453.686c-0.422-1.469-1.41-2.768-2.714-3.567c-1.303-0.799-2.834-1.126-4.335-0.836
									l0.555,5.01L147.553,453.686z"/>
							</g>
						</g>
					</g>
				</g>
				<g>
					<g>
						<g style="opacity:0.5;">
							<path style="fill:#FFFFFF;" d="M166.278,449.218c0,0,5.51,0.944,4.942,1.898c-0.568,0.953-21.035,3.224-30.151,3.435
								l-0.016-0.404l23.896-2.444C164.95,451.703,165.24,449.378,166.278,449.218z"/>
						</g>
					</g>
				</g>
				<g>
					<g>
						<g>
							<g>
								<path style="fill:#263238;" d="M140.771,454.168c0.001,0.008,0.108,0.007,0.312-0.001c0.268-0.013,0.56-0.028,0.891-0.045
									c0.89-0.06,1.983-0.134,3.274-0.221c2.763-0.206,6.576-0.542,10.778-1.004c4.203-0.464,7.999-0.966,10.74-1.366
									c1.278-0.196,2.362-0.362,3.243-0.497c0.326-0.056,0.615-0.105,0.879-0.15c0.201-0.037,0.305-0.06,0.304-0.067
									c-0.001-0.007-0.108,0.001-0.311,0.023c-0.266,0.033-0.557,0.069-0.885,0.11c-0.884,0.116-1.97,0.259-3.252,0.428
									c-2.746,0.361-6.542,0.839-10.743,1.302c-4.2,0.462-8.008,0.822-10.767,1.068c-1.288,0.114-2.379,0.211-3.267,0.29
									c-0.33,0.032-0.621,0.06-0.888,0.086C140.876,454.145,140.77,454.16,140.771,454.168z"/>
							</g>
						</g>
					</g>
				</g>
				<g>
					<g>
						<g>
							<g>
								<path style="fill:#263238;" d="M164.976,451.982c0.067,0.001,0.032-0.783,0.436-1.623c0.39-0.847,1.016-1.319,0.972-1.37
									c-0.019-0.053-0.75,0.37-1.17,1.277C164.783,451.168,164.923,452.001,164.976,451.982z"/>
							</g>
						</g>
					</g>
				</g>
				<g>
					<g>
						<g>
							<g>
								<path style="fill:#263238;" d="M159.389,449.885c0.054,0.027,0.273-0.31,0.489-0.75c0.216-0.441,0.347-0.82,0.292-0.846
									c-0.054-0.027-0.273,0.309-0.489,0.75C159.465,449.479,159.334,449.859,159.389,449.885z"/>
							</g>
						</g>
					</g>
				</g>
				<g>
					<g>
						<g>
							<g>
								<path style="fill:#263238;" d="M157.852,449.279c0.045,0.04,0.307-0.18,0.585-0.492c0.278-0.312,0.467-0.597,0.422-0.637
									c-0.045-0.04-0.307,0.18-0.585,0.492C157.996,448.953,157.807,449.238,157.852,449.279z"/>
							</g>
						</g>
					</g>
				</g>
				<g>
					<g>
						<g>
							<g>
								<path style="fill:#263238;" d="M156.747,447.689c0.006,0.06,0.431,0.067,0.948,0.016c0.518-0.052,0.933-0.142,0.927-0.202
									c-0.006-0.06-0.431-0.067-0.948-0.016C157.156,447.538,156.741,447.628,156.747,447.689z"/>
							</g>
						</g>
					</g>
				</g>
				<g>
					<g>
						<g>
							<g>
								<path style="fill:#263238;" d="M156.299,446.53c-0.014,0.056,0.465,0.211,1.077,0.188c0.613-0.02,1.08-0.209,1.062-0.263
									c-0.017-0.061-0.487,0.026-1.069,0.045C156.787,446.522,156.312,446.468,156.299,446.53z"/>
							</g>
						</g>
					</g>
				</g>
				<g>
					<g>
						<g>
							<g>
								<path style="fill:#263238;" d="M159.823,448.254c0.001,0.024,0.449,0.029,1.151-0.135c0.35-0.082,0.76-0.213,1.196-0.406
									c0.216-0.105,0.444-0.191,0.67-0.367c0.105-0.089,0.22-0.21,0.245-0.389c0.028-0.178-0.085-0.362-0.226-0.441
									c-1.164-0.448-2.198,0.293-2.544,0.908c-0.193,0.316-0.264,0.61-0.291,0.81c-0.024,0.202-0.008,0.314,0.005,0.315
									c0.042,0.01,0.028-0.462,0.416-1.041c0.192-0.284,0.497-0.573,0.913-0.749c0.393-0.166,0.969-0.262,1.383-0.059
									c0.198,0.115,0.15,0.338-0.039,0.482c-0.176,0.143-0.413,0.245-0.617,0.348c-0.419,0.198-0.814,0.341-1.152,0.44
									C160.258,448.169,159.819,448.218,159.823,448.254z"/>
							</g>
						</g>
					</g>
				</g>
				<g>
					<g>
						<g>
							<g>
								<path style="fill:#263238;" d="M160.128,448.278c0.018,0.011,0.155-0.302,0.044-0.814c-0.056-0.251-0.183-0.543-0.408-0.807
									c-0.232-0.233-0.532-0.556-1.024-0.481c-0.263,0.064-0.36,0.382-0.296,0.571c0.043,0.199,0.153,0.363,0.253,0.493
									c0.203,0.269,0.423,0.48,0.621,0.637c0.4,0.313,0.701,0.416,0.711,0.393c0.017-0.03-0.252-0.181-0.611-0.511
									c-0.178-0.165-0.375-0.377-0.559-0.638c-0.185-0.226-0.342-0.651-0.059-0.736c0.285-0.06,0.611,0.195,0.813,0.405
									c0.209,0.229,0.339,0.486,0.409,0.713C160.163,447.963,160.089,448.274,160.128,448.278z"/>
							</g>
						</g>
					</g>
				</g>
				<g>
					<g>
						<g>
							<g>
								<path style="fill:#263238;" d="M140.592,449.222c0.008,0.04,0.508-0.106,1.329-0.1c0.812,0,1.965,0.206,3.022,0.87
									c1.056,0.667,1.738,1.618,2.089,2.351c0.359,0.738,0.443,1.252,0.482,1.242c0.013-0.002,0.005-0.132-0.04-0.362
									c-0.044-0.23-0.137-0.559-0.303-0.945c-0.323-0.769-1.012-1.776-2.113-2.472c-1.102-0.693-2.307-0.88-3.14-0.84
									c-0.42,0.017-0.757,0.075-0.983,0.135C140.709,449.161,140.589,449.209,140.592,449.222z"/>
							</g>
						</g>
					</g>
				</g>
				<g>
					<g>
						<g>
							<g>
								<path style="fill:#263238;" d="M149.615,451.688c-0.001,0.057,1.188,0.119,2.646-0.031c1.459-0.146,2.611-0.445,2.598-0.501
									c-0.013-0.062-1.175,0.139-2.62,0.283C150.794,451.588,149.615,451.624,149.615,451.688z"/>
							</g>
						</g>
					</g>
				</g>
				<g>
					<g>
						<g>
							<g>
								<path style="fill:#263238;" d="M146.101,452.072c-0.039,0.049,0.123,0.237,0.273,0.493c0.153,0.253,0.241,0.486,0.302,0.475
									c0.058-0.007,0.061-0.294-0.114-0.587C146.388,452.159,146.135,452.024,146.101,452.072z"/>
							</g>
						</g>
					</g>
				</g>
				<g>
					<g>
						<g>
							<g>
								<path style="fill:#263238;" d="M144.594,450.571c-0.038,0.047,0.098,0.221,0.305,0.388c0.206,0.167,0.404,0.265,0.442,0.218
									c0.038-0.047-0.098-0.22-0.305-0.388C144.83,450.622,144.632,450.524,144.594,450.571z"/>
							</g>
						</g>
					</g>
				</g>
				<g>
					<g>
						<g>
							<g>
								<path style="fill:#263238;" d="M142.616,450.028c0.019,0.059,0.257,0.031,0.531,0.094c0.275,0.057,0.479,0.183,0.521,0.137
									c0.045-0.038-0.135-0.277-0.475-0.35C142.854,449.834,142.591,449.975,142.616,450.028z"/>
							</g>
						</g>
					</g>
				</g>
				<g>
					<g>
						<g>
							<g>
								<path style="fill:#263238;" d="M141.228,449.823c-0.016,0.058,0.098,0.139,0.253,0.18c0.155,0.041,0.294,0.027,0.309-0.031
									c0.016-0.058-0.098-0.139-0.253-0.18C141.382,449.75,141.243,449.764,141.228,449.823z"/>
							</g>
						</g>
					</g>
				</g>
			</g>
		</g>
		<g>
			<path style="fill:#263238;" d="M145.623,165.019c-1.435-7.652-9.887-11.903-13.188-18.954c-1.285-2.744-1.742-5.832-3.156-8.511
				c-3.03-5.738-10.684-8.514-16.688-6.053l-0.527,0.82c3.411,7.176,6.822,12.104,10.232,19.281
				c1.195,2.514,2.407,5.086,2.721,7.852c0.314,2.766-0.428,5.81-2.571,7.586c-1.714,1.42-4.05,1.847-5.897,3.088
				c-2.82,1.895-4.125,5.559-3.77,8.938c0.354,3.379,2.156,6.471,4.446,8.981c2.201,2.412,5.688,4.478,8.589,2.98
				c1.464-0.756,2.373-2.241,3.454-3.485c2.218-2.552,5.283-4.177,8.012-6.172C142.494,177.557,146.814,171.367,145.623,165.019z"/>
		</g>
		<g>
			<g>
				<g>
					<g>
						<path style="fill:#FFBE9D;" d="M219.159,200.56c-1.915,1.747-12.37,10.525-12.37,10.525l-10.366-9.435
							c0.27-0.774,2.805-5.126,3.1-6.222c0.253-0.941,0.335-1.919,0.259-2.89c-0.092-1.178-0.279-2.738-0.647-3.56
							c-0.455-1.017,0.564-2.058,1.443-1.557c0.879,0.502,2.2,3.275,2.16,6.863c-0.041,3.588,14.045-4.648,16.05-2.634
							L219.159,200.56z"/>
					</g>
					<g>
						<path style="fill:#FFBE9D;" d="M214.828,199.52"/>
					</g>
					<g>
						<path style="fill:#E8505B;" d="M130.008,186.467l34.407,41.174l31.588-28.566l13.778,13.442c0,0-39.653,43.629-45.702,43.321
							c-6.049-0.307-26.596-13.896-26.596-13.896L130.008,186.467z"/>
					</g>
					<g>
						<g>
							<g>
								<path style="fill:#263238;" d="M208.093,180.34c-0.285-0.095-0.594,0.049-0.705,0.327l-9.347,23.578
									c-0.179,0.439,0.016,0.941,0.443,1.145l11.106,5.294c0.458,0.218,1.006,0.012,1.207-0.454l10.51-24.443
									c0.206-0.479-0.039-1.031-0.533-1.2L208.093,180.34z"/>
							</g>
							<g>
								<polygon style="fill:#F5F5F5;" points="207.791,182.042 199.193,203.081 210.826,208.346 219.633,186.039 								"/>
							</g>
						</g>
					</g>
					<g>
						<g>
							<path style="fill:#263238;" d="M204.437,218.65c-0.041,0.053-0.99-0.588-2.443-1.734c-1.453-1.145-3.397-2.809-5.421-4.779
								c-2.023-1.972-3.738-3.873-4.92-5.295c-1.183-1.422-1.849-2.354-1.797-2.396c0.059-0.049,0.825,0.799,2.074,2.153
								c1.249,1.355,2.996,3.204,5.007,5.165c2.012,1.958,3.906,3.656,5.293,4.869C203.616,217.846,204.483,218.589,204.437,218.65z
								"/>
						</g>
					</g>
					<g>
						<g>
							<path style="fill:#263238;" d="M194.554,203.102c0.064,0.056-0.36,0.396-0.314,1.127c0.024,0.346,0.172,0.774,0.515,1.03
								c0.33,0.265,0.865,0.269,1.313,0.013c0.447-0.257,0.713-0.722,0.65-1.141c-0.049-0.424-0.344-0.769-0.63-0.964
								c-0.609-0.408-1.116-0.213-1.132-0.296c-0.011-0.025,0.088-0.121,0.323-0.176c0.232-0.057,0.602-0.043,0.994,0.154
								c0.378,0.198,0.808,0.592,0.92,1.214c0.125,0.629-0.268,1.328-0.866,1.66c-0.588,0.349-1.39,0.336-1.87-0.089
								c-0.481-0.41-0.604-0.98-0.585-1.406c0.028-0.438,0.202-0.765,0.368-0.937C194.405,203.117,194.538,203.079,194.554,203.102z
								"/>
						</g>
					</g>
					<g>
						<g>
							<path style="fill:#263238;" d="M163.061,239.666c-0.061,0.016-0.31-0.652-0.507-1.784c-0.199-1.129-0.307-2.729-0.112-4.477
								c0.201-1.748,0.664-3.284,1.111-4.34c0.446-1.059,0.838-1.654,0.894-1.625c0.153,0.065-1.119,2.606-1.487,6.023
								C162.553,236.875,163.225,239.637,163.061,239.666z"/>
						</g>
					</g>
					<g>
						<g>
							<path style="fill:#263238;" d="M167.961,239.354c-0.053,0.036-0.518-0.527-1.113-1.543c-0.595-1.013-1.29-2.498-1.794-4.227
								c-0.5-1.731-0.708-3.357-0.748-4.531c-0.042-1.176,0.05-1.9,0.114-1.899c0.165-0.005,0.134,2.899,1.134,6.285
								C166.522,236.833,168.103,239.269,167.961,239.354z"/>
						</g>
					</g>
				</g>
				<g>
					<polygon style="fill:#EBEBEB;" points="207.993,185.964 202.304,200.111 210.826,203.597 216.765,189.137 					"/>
				</g>
				<g>
					<path style="fill:#E8505B;" d="M209.717,201.489l-5.034-2.104c-0.373-0.156-0.549-0.584-0.393-0.957l0.097-0.231
						c0.156-0.373,0.584-0.549,0.957-0.393l5.034,2.104c0.373,0.156,0.549,0.584,0.393,0.957l-0.096,0.231
						C210.519,201.468,210.09,201.644,209.717,201.489z"/>
				</g>
				<g>
					
						<rect x="208.216" y="189.44" transform="matrix(0.9359 0.3524 -0.3524 0.9359 80.5027 -62.3783)" style="fill:#455A64;" width="6.748" height="0.985"/>
				</g>
				<g>
					
						<rect x="206.496" y="192.467" transform="matrix(0.9359 0.3524 -0.3524 0.9359 81.6486 -61.6737)" style="fill:#E0E0E0;" width="7.462" height="1.93"/>
				</g>
				<g>
					
						<rect x="205.344" y="195.371" transform="matrix(0.9359 0.3524 -0.3524 0.9359 82.598 -61.0816)" style="fill:#E0E0E0;" width="7.462" height="1.93"/>
				</g>
				<g>
					<path style="fill:#FFBE9D;" d="M218.788,191.65c-1.607,0.264-3.57,0.423-5.178,0.687c-0.455,0.075-0.93,0.158-1.299,0.434
						c-0.369,0.276-0.59,0.811-0.365,1.213c0.257,0.459,0.89,0.499,1.415,0.482c1.182-0.038,2.365-0.077,3.548-0.115
						c-1.508,0.129-3.032,0.261-4.465,0.746c-0.667,0.226-1.409,0.669-1.423,1.372c-0.012,0.606,0.575,1.089,1.174,1.176
						c0.599,0.087,1.862,0.029,1.862,0.029s2.429,0.035,2.534,0.352c-1.516-0.011-3.52,0.317-5.034,0.452
						c-0.414,0.037-0.604,0.603-0.703,1.007c-0.099,0.404,0.056,0.895,0.438,1.06c0.186,0.08,0.395,0.075,0.597,0.069
						c1.96-0.061,3.92-0.121,5.88-0.182"/>
				</g>
			</g>
			<g>
				<g>
					<path style="fill:#E8505B;" d="M117.835,184.011c0,0,7.155-0.841,12.173,2.456c4.537,2.981,20.428,48.545,19.815,62.065
						c-0.613,13.52,1.104,37.357,3.886,47.183c2.782,9.825,4.886,95.03-17.039,135.574l-40.745-5.72l12.734-109.425l-1.301-99.272
						L117.835,184.011z"/>
				</g>
				<g style="opacity:0.3;">
					<path d="M115.493,184.011c0,0,7.155-0.841,12.173,2.456c4.537,2.981,20.428,48.545,19.815,62.065
						c-0.613,13.52,1.104,37.357,3.886,47.183c2.782,9.825,4.886,95.03-17.039,135.574l-37.243-5.72l9.232-109.425l-1.301-99.272
						L115.493,184.011z"/>
				</g>
			</g>
		</g>
		<g>
			<path style="fill:#455A64;" d="M100.505,181.915c0,0-22.409-2.419-16.416,29.616l5.758,33.701l36.591,22.137
				c4.943,1.333,0.741-23.038,8.183-34.262c2.79-4.208,3.032-7.359,2.79-9.301c0.704-7.344-5.18-11.929-6.018-19.359
				c-0.92-10.76-0.879-16.721-5.56-17.923L100.505,181.915"/>
		</g>
		<g>
			<g>
				<path style="fill:#263238;" d="M131.815,201.891c0.109,0.003-0.704,1.819-0.006,4.723c0.324,1.438,1.019,3.058,1.962,4.78
					c0.917,1.732,2.089,3.589,2.856,5.779c1.565,4.395,1.089,8.77,0.156,11.603c-0.462,1.435-1.002,2.533-1.426,3.257
					c-0.43,0.721-0.711,1.091-0.736,1.074c-0.101-0.053,0.987-1.59,1.81-4.438c0.824-2.806,1.223-7.061-0.295-11.323
					c-0.74-2.119-1.886-3.969-2.789-5.729c-0.927-1.748-1.612-3.437-1.897-4.927c-0.3-1.487-0.239-2.74-0.058-3.565
					c0.083-0.415,0.187-0.728,0.27-0.933C131.746,201.988,131.798,201.885,131.815,201.891z"/>
			</g>
		</g>
		<g>
			<g>
				<g>
					<g>
						<g>
							<g>
								<path style="fill:#FFBE9D;" d="M120.595,184.221c-0.525-5.513-0.978-11.326-0.978-11.326s6.984-1.878,7.543-11.286
									c0.533-8.972-2.18-24.597-2.18-24.597v-0.791c-10.628-3.162-23.211-3.036-29.692,5.859l0,0l5.006,44.704
									c0.581,5.19,5.506,8.823,11.058,8.159h0C116.96,194.272,121.096,189.473,120.595,184.221z"/>
							</g>
						</g>
					</g>
					<g>
						<g>
							<g>
								<g>
									<path style="fill:#263238;" d="M124.971,148.361c0.084,0.625-0.376,1.212-1.028,1.311c-0.65,0.099-1.246-0.325-1.33-0.951
										c-0.084-0.625,0.376-1.212,1.026-1.312C124.291,147.31,124.887,147.736,124.971,148.361z"/>
								</g>
							</g>
						</g>
						<g>
							<g>
								<g>
									<g>
										<path style="fill:#263238;" d="M124.967,147.053c-0.132,0.169-1.098-0.408-2.376-0.279
											c-1.278,0.111-2.152,0.861-2.306,0.718c-0.075-0.063,0.048-0.357,0.427-0.695c0.373-0.336,1.031-0.691,1.827-0.766
											c0.797-0.074,1.495,0.153,1.91,0.415C124.872,146.71,125.032,146.977,124.967,147.053z"/>
									</g>
								</g>
							</g>
						</g>
					</g>
					<g>
						<g>
							<g>
								<g>
									<path style="fill:#263238;" d="M111.678,150.087c0.084,0.625-0.376,1.212-1.028,1.311c-0.65,0.099-1.246-0.325-1.33-0.951
										c-0.084-0.625,0.376-1.212,1.026-1.312C110.998,149.036,111.594,149.462,111.678,150.087z"/>
								</g>
							</g>
						</g>
						<g>
							<g>
								<g>
									<g>
										<path style="fill:#263238;" d="M111.674,148.83c-0.132,0.169-1.099-0.408-2.376-0.279
											c-1.278,0.111-2.152,0.861-2.306,0.718c-0.075-0.063,0.046-0.357,0.427-0.695c0.373-0.336,1.03-0.691,1.827-0.766
											c0.797-0.074,1.495,0.153,1.91,0.415C111.577,148.487,111.739,148.754,111.674,148.83z"/>
									</g>
								</g>
							</g>
						</g>
					</g>
					<g>
						<g>
							<g>
								<g>
									<path style="fill:#263238;" d="M117.246,157.854c-0.013-0.072,0.768-0.288,2.04-0.579c0.323-0.066,0.626-0.161,0.659-0.389
										c0.054-0.243-0.118-0.582-0.313-0.946c-0.385-0.76-0.787-1.556-1.21-2.391c-1.689-3.407-2.946-6.222-2.808-6.288
										c0.138-0.067,1.619,2.641,3.307,6.048c0.408,0.841,0.799,1.642,1.171,2.41c0.16,0.359,0.414,0.759,0.295,1.264
										c-0.064,0.253-0.286,0.453-0.49,0.53c-0.203,0.084-0.386,0.106-0.547,0.132
										C118.061,157.842,117.258,157.926,117.246,157.854z"/>
								</g>
							</g>
						</g>
					</g>
					<g>
						<g>
							<g>
								<path style="fill:#EB996E;" d="M119.618,172.895c0,0-6.192,1.015-12.731-2.089c0,0,3.636,6.067,12.822,4.288
									L119.618,172.895z"/>
							</g>
						</g>
					</g>
					<g>
						<g>
							<g>
								<path style="fill:#E8505B;" d="M117.009,160.988c-0.52-0.563-1.358-0.817-2.149-0.652c-0.549,0.114-1.083,0.437-1.376,0.922
									c-0.293,0.485-0.3,1.133,0.049,1.534c0.393,0.451,1.125,0.492,1.718,0.259c0.593-0.234,1.079-0.687,1.538-1.136
									c0.127-0.124,0.257-0.254,0.328-0.414c0.071-0.16,0.07-0.361-0.049-0.476"/>
							</g>
						</g>
					</g>
					<g>
						<g>
							<g>
								<g>
									<path style="fill:#263238;" d="M113.571,159.109c0.207-0.033,0.346,1.355,1.63,2.223c1.283,0.871,2.747,0.57,2.777,0.763
										c0.028,0.085-0.303,0.302-0.926,0.38c-0.61,0.081-1.524-0.027-2.31-0.558c-0.784-0.533-1.175-1.308-1.278-1.873
										C113.354,159.469,113.475,159.11,113.571,159.109z"/>
								</g>
							</g>
						</g>
					</g>
				</g>
			</g>
		</g>
		<g>
			<path style="fill:#263238;" d="M76.709,310.173l-14.206,58.552c0,0-16.948,70.126-17.48,71.974l-0.537,2.185l23.874,1.799
				l41.337-130.077L76.709,310.173z"/>
		</g>
		<g>
			<path style="fill:#263238;" d="M119.68,351.276c3.864,18.678,18.03,97.011,18.03,97.011l24.209-2.483l-13.769-99.912
				c-0.219-2.608-0.747-5.181-1.576-7.664l-22.633-67.851l-42.59-27.072c-0.422,0.022-6.895,17.483-5.962,29.609
				c0.417,5.421,2.361,10.614,5.434,15.099c2.708,3.952,6.478,9.462,7.32,10.734C89.491,300.781,119.68,351.276,119.68,351.276z"/>
		</g>
		<g>
			<g>
				<path style="fill:#E8505B;" d="M71.274,266.823c-1.169,4.219-2.136,8.487-2.885,12.801
					c-2.724,15.685-9.642,53.862-14.128,63.956c-5.688,12.798-14.931,61.148-12.087,70.035c2.844,8.888,64.703,17.776,64.703,17.776
					s3.555-57.948,7.11-72.524c3.555-14.576,11.021-46.572,12.087-65.414c1.067-18.842,0.711-51.549-5.333-71.813
					s-19.945-41.545-19.945-41.545s-11.878,3.274-15.925,7.985c0,0-4.944,6.061-5.044,11.828
					c-0.099,5.767-2.736,33.201-4.529,49.139C74.783,253.623,72.774,261.41,71.274,266.823z"/>
			</g>
			<g>
				<g>
					<path style="fill:#263238;" d="M126.125,292.502c-0.009,0-0.021-0.098-0.035-0.289c-0.013-0.221-0.03-0.5-0.051-0.849
						c-0.038-0.784-0.091-1.877-0.159-3.266c-0.167-2.831-0.318-6.95-1.151-11.946c-0.434-2.491-1.081-5.198-2.166-7.96
						c-1.057-2.776-2.694-5.516-4.768-8.137c-2.056-2.637-4.489-5.188-6.848-7.993c-1.177-1.403-2.334-2.875-3.387-4.458
						c-1.048-1.591-1.942-3.318-2.631-5.151c-1.386-3.64-1.826-7.684-0.617-11.247c0.558-1.806,1.732-3.268,2.61-4.745
						c0.437-0.746,0.841-1.508,1.036-2.303c0.101-0.396,0.128-0.797,0.095-1.185c-0.067-0.38-0.171-0.758-0.4-1.074
						c-0.409-0.659-1.121-1.056-1.865-1.335c-0.746-0.288-1.536-0.493-2.284-0.84c-0.756-0.328-1.425-0.89-1.874-1.565
						c-0.45-0.681-0.68-1.456-0.804-2.21c-0.235-1.521-0.076-2.99,0.116-4.366c0.198-1.371,0.388-2.687,0.57-3.945
						c0.735-4.996,1.331-9.052,1.75-11.9c0.214-1.374,0.382-2.456,0.502-3.232c0.059-0.345,0.106-0.621,0.144-0.839
						c0.035-0.189,0.058-0.285,0.066-0.283c0.009,0.001,0.004,0.1-0.014,0.291c-0.024,0.22-0.054,0.498-0.092,0.846
						c-0.097,0.779-0.233,1.865-0.405,3.245c-0.38,2.854-0.92,6.917-1.587,11.923c-0.171,1.259-0.35,2.577-0.536,3.95
						c-0.181,1.361-0.321,2.802-0.088,4.24c0.122,0.712,0.341,1.426,0.749,2.034c0.412,0.604,0.988,1.091,1.694,1.395
						c0.699,0.321,1.479,0.521,2.261,0.818c0.771,0.284,1.605,0.728,2.099,1.512c0.267,0.37,0.402,0.826,0.479,1.277
						c0.043,0.458,0.009,0.92-0.1,1.358c-0.215,0.88-0.638,1.674-1.084,2.442c-0.908,1.534-2.03,2.933-2.555,4.656
						c-1.152,3.414-0.736,7.337,0.622,10.9c1.318,3.617,3.585,6.681,5.921,9.464c2.338,2.792,4.77,5.356,6.835,8.025
						c2.082,2.649,3.741,5.457,4.792,8.274c1.083,2.806,1.714,5.545,2.127,8.056c0.792,5.037,0.886,9.163,0.991,11.999
						c0.026,1.391,0.046,2.486,0.061,3.271c0,0.35-0.001,0.63-0.001,0.851C126.14,292.403,126.134,292.501,126.125,292.502z"/>
				</g>
			</g>
			<g>
				<g>
					<path style="fill:#263238;" d="M118.236,300.42c-0.021-0.021,0.056-0.162,0.295-0.316c0.234-0.152,0.653-0.292,1.17-0.206
						c0.499,0.067,1.153,0.462,1.338,1.185c0.19,0.679-0.018,1.578-0.756,2.058c-0.757,0.45-1.657,0.236-2.18-0.238
						c-0.565-0.491-0.617-1.26-0.442-1.732c0.165-0.498,0.488-0.802,0.734-0.935c0.25-0.136,0.412-0.134,0.42-0.105
						c0.049,0.068-0.595,0.28-0.799,1.138c-0.096,0.407-0.016,0.94,0.402,1.273c0.395,0.337,1.089,0.467,1.589,0.158
						c0.498-0.312,0.691-0.991,0.566-1.496c-0.11-0.523-0.547-0.84-0.952-0.945C118.768,300.038,118.273,300.496,118.236,300.42z"/>
				</g>
			</g>
			<g>
				<g>
					<path style="fill:#263238;" d="M111.614,334.882c-0.021-0.021,0.056-0.162,0.295-0.316c0.234-0.152,0.653-0.292,1.17-0.206
						c0.499,0.067,1.153,0.462,1.338,1.185c0.19,0.679-0.018,1.578-0.756,2.058c-0.758,0.45-1.657,0.236-2.18-0.239
						c-0.565-0.491-0.617-1.26-0.442-1.732c0.165-0.498,0.488-0.802,0.734-0.935c0.25-0.136,0.412-0.134,0.42-0.105
						c0.049,0.068-0.595,0.28-0.799,1.138c-0.096,0.407-0.016,0.94,0.403,1.272c0.395,0.337,1.089,0.466,1.589,0.158
						c0.498-0.312,0.691-0.991,0.566-1.496c-0.11-0.524-0.547-0.84-0.952-0.945C112.146,334.5,111.651,334.958,111.614,334.882z"/>
				</g>
			</g>
			<g>
				<g>
					<g>
						<path style="fill:#263238;" d="M111.404,291.768c0.004-0.007,0.004,0.097-0.012,0.336c-0.022,0.249-0.052,0.573-0.089,0.982
							c-0.097,0.894-0.235,2.157-0.411,3.767c-0.384,3.268-0.958,7.995-1.835,13.815c-0.441,2.909-0.959,6.092-1.667,9.486
							c-0.368,1.695-0.736,3.449-1.446,5.202c-0.104,0.216-0.166,0.442-0.307,0.652c-0.148,0.211-0.301,0.42-0.499,0.572
							c-0.367,0.343-0.8,0.582-1.236,0.797c-0.879,0.422-1.814,0.705-2.765,0.951c-3.824,0.903-7.923,1.195-12.155,1.377
							c-4.239,0.139-8.622,0.17-13.126-0.156c-0.182-0.015-0.367-0.037-0.554-0.063c-0.261-0.019-0.512-0.252-0.602-0.438
							c-0.209-0.389-0.261-0.765-0.313-1.136c-0.088-0.741-0.084-1.467-0.064-2.187c0.05-1.439,0.187-2.852,0.348-4.246
							c0.327-2.787,0.756-5.497,1.203-8.128c0.905-5.262,1.895-10.207,2.872-14.744l0.035-0.164l0.167-0.014
							c9.907-0.854,18.049-2.631,23.667-4.111c2.812-0.741,5.002-1.402,6.493-1.86c0.732-0.224,1.306-0.399,1.727-0.528
							C111.223,291.815,111.412,291.758,111.404,291.768c-0.004,0.005-0.057,0.026-0.157,0.064
							c-0.119,0.044-0.261,0.098-0.437,0.163c-0.386,0.141-0.92,0.349-1.656,0.595c-1.479,0.501-3.66,1.203-6.467,1.983
							c-5.608,1.558-13.76,3.404-23.697,4.306l0.202-0.178c-0.954,4.532-1.928,9.48-2.819,14.732
							c-0.441,2.627-0.865,5.332-1.187,8.103c-0.159,1.385-0.294,2.79-0.342,4.203c-0.02,0.705-0.021,1.417,0.061,2.106
							c0.042,0.338,0.11,0.691,0.247,0.939c0.083,0.127,0.118,0.169,0.229,0.185c0.172,0.024,0.346,0.045,0.526,0.059
							c4.448,0.322,8.842,0.297,13.058,0.164c4.212-0.173,8.301-0.458,12.059-1.333c0.931-0.237,1.843-0.512,2.674-0.907
							c0.831-0.412,1.567-0.901,1.83-1.79c0.68-1.658,1.068-3.426,1.44-5.102c0.723-3.374,1.261-6.55,1.725-9.451
							c0.923-5.806,1.552-10.524,1.998-13.783c0.217-1.604,0.387-2.862,0.507-3.754c0.059-0.406,0.105-0.728,0.14-0.975
							C111.375,291.896,111.401,291.775,111.404,291.768z"/>
					</g>
				</g>
				<g>
					<g>
						<path style="fill:#263238;" d="M110.762,299.062c0.015,0.033-0.411,0.25-1.194,0.615c-0.78,0.372-1.935,0.853-3.381,1.396
							c-2.891,1.089-7.002,2.321-11.661,3.101c-4.662,0.771-8.951,0.938-12.039,0.843c-1.545-0.045-2.793-0.126-3.651-0.225
							c-0.859-0.092-1.331-0.159-1.328-0.195c0.003-0.036,0.481-0.036,1.342-0.007c0.86,0.037,2.105,0.062,3.642,0.059
							c3.073-0.001,7.323-0.224,11.949-0.989c4.623-0.775,8.716-1.94,11.623-2.935c1.455-0.495,2.625-0.922,3.427-1.236
							C110.294,299.184,110.747,299.03,110.762,299.062z"/>
					</g>
				</g>
			</g>
		</g>
		<g>
			<g>
				<g>
					<path style="fill:#455A64;" d="M54.645,270.857c0,0,0.021-0.162,0.086-0.472c0.073-0.331,0.174-0.786,0.303-1.372
						c0.289-1.226,0.705-2.994,1.239-5.259c1.101-4.561,2.771-11.142,4.938-19.246c1.098-4.05,2.299-8.484,3.589-13.243
						c1.305-4.755,2.67-9.847,4.301-15.154c1.659-5.294,3.562-10.824,6.165-16.292c1.298-2.733,2.763-5.449,4.438-8.091
						c0.832-1.32,1.7-2.651,2.763-3.853c1.047-1.205,2.283-2.312,3.777-3.029c1.483-0.727,3.263-0.9,4.831-0.373
						c1.57,0.517,2.884,1.576,3.869,2.828c1.998,2.574,2.492,5.816,2.783,8.792c0.511,6.014,1.004,11.816,1.473,17.344
						c0.923,11.048,1.754,20.999,2.453,29.365c0.678,8.343,1.227,15.102,1.609,19.801c0.177,2.32,0.315,4.13,0.411,5.386
						c0.04,0.598,0.071,1.064,0.094,1.402c0.018,0.316,0.014,0.479,0.014,0.479s-0.032-0.16-0.067-0.475
						c-0.035-0.337-0.083-0.801-0.145-1.397c-0.119-1.254-0.289-3.061-0.508-5.377c-0.421-4.696-1.026-11.45-1.774-19.787
						c-0.731-8.363-1.6-18.311-2.564-29.356c-0.479-5.525-0.982-11.324-1.503-17.335c-0.288-2.955-0.793-6.099-2.683-8.522
						c-0.935-1.188-2.176-2.178-3.621-2.653c-1.442-0.482-3.061-0.328-4.449,0.349c-1.398,0.669-2.59,1.727-3.608,2.9
						c-1.034,1.168-1.888,2.474-2.717,3.788c-1.663,2.62-3.12,5.317-4.414,8.032c-2.594,5.433-4.501,10.938-6.168,16.216
						c-1.64,5.29-3.02,10.376-4.343,15.127c-1.312,4.752-2.534,9.179-3.65,13.224c-2.212,8.09-3.936,14.655-5.096,19.199
						c-0.574,2.255-1.023,4.014-1.334,5.234c-0.151,0.581-0.268,1.032-0.353,1.36C54.7,270.704,54.645,270.857,54.645,270.857z"/>
				</g>
			</g>
			<g>
				<g>
					<path style="fill:#263238;" d="M52.191,267.409c-0.39,1.559-7.661,42.932-7.661,42.932l54.091,1.751l7.447-42.904
						L52.191,267.409z"/>
				</g>
				<g>
					<g>
						<path style="fill:#455A64;" d="M105.511,269.977c0.01,0.015-0.158,0.142-0.487,0.369c-0.328,0.229-0.82,0.555-1.459,0.965
							c-1.28,0.818-3.151,1.972-5.515,3.31c-2.364,1.337-5.212,2.876-8.459,4.42c-1.634,0.76-3.324,1.566-5.193,2.241
							c-1.883,0.618-3.941,0.929-6.036,0.881c-4.211-0.092-8.067-1.403-11.321-2.927c-3.265-1.57-5.901-3.506-8.017-5.209
							c-2.115-1.713-3.711-3.229-4.805-4.282c-0.543-0.531-0.961-0.947-1.237-1.237c-0.277-0.289-0.416-0.446-0.404-0.459
							s0.176,0.12,0.476,0.383c0.34,0.303,0.771,0.689,1.302,1.164c1.134,1.005,2.764,2.476,4.896,4.142
							c2.132,1.656,4.768,3.543,7.992,5.063c3.224,1.482,7.023,2.752,11.127,2.84c2.043,0.047,4.038-0.252,5.865-0.844
							c1.807-0.644,3.528-1.45,5.149-2.191c3.244-1.513,6.103-3.015,8.484-4.308c2.381-1.295,4.278-2.398,5.588-3.162
							c0.616-0.359,1.115-0.651,1.509-0.881C105.314,270.059,105.501,269.961,105.511,269.977z"/>
					</g>
				</g>
				<g>
					<g>
						<path style="fill:#455A64;" d="M102.202,271.822c0.142,0.025-1.308,9.035-3.238,20.123c-1.93,11.092-3.61,20.061-3.751,20.036
							c-0.142-0.025,1.308-9.033,3.238-20.125C100.381,280.768,102.061,271.797,102.202,271.822z"/>
					</g>
				</g>
				<g>
					<path style="fill:#455A64;" d="M76.757,280.54c-0.145,1.343-0.289,2.686-0.433,4.028c-0.046,0.424-0.09,0.86,0.02,1.272
						c0.111,0.412,0.413,0.801,0.832,0.886c0.486,0.098,0.974-0.247,1.205-0.686s0.261-0.952,0.288-1.447
						c0.077-1.439,0.154-2.879,0.231-4.318c-0.592,0.004-1.185,0.009-1.777,0.013"/>
				</g>
			</g>
		</g>
		<g>
			<g>
				<g>
					<path style="fill:#E8505B;" d="M87.904,185.556c4.391-1.471,8.065,4.227,8.569,8.831c0.393,3.582,0.663,8.835,0.301,15.961
						c-0.799,15.758-7.928,30.836-7.928,30.836l45.241,6.762l-1.661,17.402l-57.21-6.138c-8.472-0.909-14.034-9.312-11.529-17.456
						c5.113-16.622,13.465-40.591,15.347-44.568C81.563,191.838,81.848,187.585,87.904,185.556z"/>
				</g>
				<g>
					<g>
						<path style="fill:#263238;" d="M73.062,258.8c0.001-0.008,0.101,0.001,0.295,0.025c0.217,0.03,0.5,0.069,0.86,0.118
							c0.783,0.117,1.894,0.282,3.318,0.494c2.896,0.402,7.109,0.996,12.399,1.609c10.576,1.25,25.439,2.734,42.512,4.049
							l-0.271,0.229c0.526-5.538,1.081-11.377,1.652-17.377l0.002-0.025l0.219,0.282c-16.996-2.559-32.69-4.923-45.228-6.811
							l-0.248-0.037l0.076-0.234c2.945-9.103,5.196-16.63,6.535-21.928c0.675-2.647,1.146-4.729,1.441-6.149
							c0.141-0.69,0.25-1.229,0.33-1.621c0.076-0.366,0.131-0.552,0.131-0.552s-0.013,0.193-0.069,0.562
							c-0.06,0.369-0.135,0.92-0.271,1.634c-0.257,1.43-0.69,3.524-1.332,6.183c-1.271,5.322-3.467,12.878-6.367,21.997
							l-0.172-0.271c12.545,1.86,28.248,4.19,45.254,6.712l0.242,0.036l-0.023,0.246l-0.002,0.025
							c-0.575,6-1.134,11.839-1.665,17.376l-0.024,0.248l-0.248-0.019c-17.082-1.342-31.942-2.892-42.514-4.231
							c-5.287-0.657-9.497-1.302-12.386-1.759c-1.419-0.248-2.526-0.442-3.306-0.579c-0.356-0.068-0.638-0.121-0.852-0.162
							C73.157,258.831,73.06,258.808,73.062,258.8z"/>
					</g>
				</g>
				<g>
					<g>
						<path style="fill:#263238;" d="M123.515,264.623c-0.143-0.013,0.115-4.056,0.576-9.028c0.461-4.974,0.951-8.994,1.095-8.981
							c0.143,0.013-0.115,4.055-0.576,9.029C124.149,260.616,123.659,264.637,123.515,264.623z"/>
					</g>
				</g>
			</g>
			<g>
				<g>
					<path style="fill:#263238;" d="M129.273,249.574c-0.001-0.031,0.118-0.079,0.34-0.041c0.218,0.036,0.536,0.187,0.779,0.525
						c0.245,0.315,0.385,0.917,0.074,1.427c-0.283,0.489-0.901,0.868-1.591,0.741c-0.681-0.15-1.105-0.728-1.199-1.276
						c-0.109-0.575,0.173-1.082,0.474-1.339c0.646-0.546,1.219-0.358,1.185-0.306c0.01,0.082-0.486,0.071-0.923,0.565
						c-0.209,0.239-0.362,0.603-0.265,0.986c0.084,0.38,0.411,0.774,0.832,0.86c0.418,0.086,0.873-0.159,1.078-0.48
						c0.221-0.322,0.174-0.706,0.024-0.981C129.765,249.678,129.255,249.651,129.273,249.574z"/>
				</g>
			</g>
			<g>
				<g>
					<g>
						<g>
							<polygon style="fill:#EBEBEB;" points="143.837,242.867 145.904,264.303 156.35,264.303 158.852,242.867 							"/>
						</g>
					</g>
					<g>
						<g>
							<path style="fill:#455A64;" d="M143.837,240.097c0,0-0.871,0.871-0.979,2.829h16.974c0,0,0.326-1.741-0.979-2.829H143.837z"
								/>
						</g>
					</g>
					<g>
						<g>
							<polygon style="fill:#455A64;" points="145.772,238.133 145.198,240.254 158.01,240.35 157.165,238.109 							"/>
						</g>
					</g>
					<g>
						<g>
							<path style="fill:#455A64;" d="M143.622,248.233c0,0.199,1.243,10.789,1.243,10.789h12.771l1.216-10.789H143.622z"/>
						</g>
					</g>
				</g>
				<g>
					<path style="fill:#FFBE9D;" d="M144.417,246.34l-0.329,3.585l12.367,0.291c0,0,0,4.17-1.251,5.421c0,0,1.251,2.502-0.139,3.892
						c-1.39,1.39-2.224,0.973-2.224,0.973s0.556,2.78-0.834,3.475c-1.39,0.695-19.413-0.381-19.413-0.381l1.107-11.603l4.029-0.358
						C137.868,247.803,141.847,245.889,144.417,246.34z"/>
				</g>
			</g>
		</g>
		<g>
			<path style="fill:#263238;" d="M128.775,137.099c-0.715-2.039-2.061-3.903-3.935-4.976c-1.257-0.72-2.758-1.031-4.187-0.86
				c0.004-0.01,0.01-0.019,0.014-0.029l-0.025-0.301c-1.346-2.413-4-2.934-6.74-2.477c-2.725,0.454-5.438,2.462-7.877,3.761
				c-3.301,1.758-6.458,3.772-9.611,5.783c-2.619,1.671-5.305,3.404-7.112,5.931c-1.897,2.654-2.663,6.091-2.071,9.299
				c0.646,3.504,2.813,7.06,1.529,10.383c-0.856,2.216-3.031,3.605-4.46,5.503c-2.229,2.96-2.403,7.393-0.189,10.364
				c1.456,1.954,3.691,3.133,5.725,4.474c3.235,2.133,6.127,4.815,9.607,6.519c3.48,1.704,7.884,2.264,11.089,0.086
				c3.3-2.243,4.354-6.757,3.766-10.703c-0.588-3.947-2.491-7.55-4.019-11.236c-1.989-4.797-3.372-9.845-4.106-14.987
				c-0.293-2.052-0.457-4.26,0.521-6.088c0.877-1.64,2.522-2.692,4.009-3.809c3.497-2.627,6.425-5.995,8.58-9.801
				c0.628,1.825,1.981,3.452,3.424,4.796c2.018,1.88,4.291,3.487,6.736,4.763C129.615,141.345,129.49,139.138,128.775,137.099z"/>
		</g>
	</g>
</g>
<g id="Plant">
	<g>
		<g>
			<path style="fill:#E8505B;" d="M444.268,434.173c-0.667-2.648,1.082-5.293,3.036-7.201c1.954-1.908,4.288-3.613,5.314-6.144
				c1.662-4.1-0.511-9.434,2.304-12.848c1.656-2.008,4.609-2.666,6.081-4.813c0.772-1.126,1.027-2.514,1.336-3.844
				c1.573-6.784,5.009-13.125,9.831-18.148c0.299,6.05-1.07,12.175-3.917,17.522c-1.144,2.15-2.546,4.243-2.935,6.647
				c-0.631,3.904,1.526,7.941,0.545,11.772c-1.122,4.381-6.067,7.29-6.327,11.805c-0.219,3.817,3.09,7.188,2.82,11.001
				c-0.115,1.624-0.877,3.128-1.724,4.518c-2.98,4.891-7.336,8.247-13.909,8.1l-8.053,0.236L444.268,434.173z"/>
		</g>
		<g style="opacity:0.3;">
			<g>
				<path d="M444.268,434.173c-0.667-2.648,1.082-5.293,3.036-7.201c1.954-1.908,4.288-3.613,5.314-6.144
					c1.662-4.1-0.511-9.434,2.304-12.848c1.656-2.008,4.609-2.666,6.081-4.813c0.772-1.126,1.027-2.514,1.336-3.844
					c1.573-6.784,5.009-13.125,9.831-18.148c0.299,6.05-1.07,12.175-3.917,17.522c-1.144,2.15-2.546,4.243-2.935,6.647
					c-0.631,3.904,1.526,7.941,0.545,11.772c-1.122,4.381-6.067,7.29-6.327,11.805c-0.219,3.817,3.09,7.188,2.82,11.001
					c-0.115,1.624-0.877,3.128-1.724,4.518c-2.98,4.891-7.336,8.247-13.909,8.1l-8.053,0.236L444.268,434.173z"/>
			</g>
		</g>
		<g>
			<g>
				<g>
					<g>
						<path style="fill:#263238;" d="M437.038,452.98c0,0-0.769,0.174-2.217-0.06c-0.721-0.109-1.608-0.306-2.613-0.673
							c-0.999-0.372-2.135-0.9-3.222-1.788c-0.521-0.461-1.042-1.029-1.319-1.779c-0.273-0.747-0.319-1.567-0.365-2.408
							c-0.038-0.842-0.034-1.718-0.173-2.605c-0.131-0.887-0.474-1.76-0.969-2.595c-0.94-1.673-2.507-3.26-3.004-5.528
							c-0.538-2.231-0.129-4.639,0.259-7.057c0.387-2.413,0.764-5.044-0.145-7.565c-0.849-2.523-2.602-4.806-3.469-7.65
							c-0.863-2.872-0.436-5.954-0.604-8.996c-0.076-1.528-0.363-3.057-1.024-4.476c-0.643-1.429-1.539-2.778-2.236-4.282
							c-1.412-3.042-1.645-6.481-2.017-9.852c-0.181-1.699-0.364-3.415-0.548-5.148c-0.182-1.742-0.327-3.476-0.865-5.154
							c-0.487-1.69-1.195-3.327-1.898-4.994c-0.344-0.839-0.707-1.678-0.92-2.608c-0.152-0.95-0.193-1.839-0.244-2.771
							c-0.08-1.847,0.007-3.717,0.246-5.573c0.23-1.857,0.575-3.697,0.785-5.558c0.013-0.11,0.026-0.22,0.038-0.321l0.044-0.373
							l0.331,0.168c1.72,0.873,3.189,2.168,4.314,3.683c1.145,1.505,1.975,3.201,2.635,4.923c1.326,3.467,1.789,7.095,2.448,10.558
							c0.642,3.463,1.495,6.871,3.253,9.756c0.874,1.439,1.934,2.754,2.86,4.158c0.924,1.394,1.735,2.925,1.972,4.601
							c0.457,3.409-1.436,6.39-1.063,9.408c0.131,1.499,0.719,2.903,1.445,4.186c0.724,1.29,1.576,2.488,2.385,3.692
							c0.808,1.204,1.577,2.424,2.141,3.727c0.574,1.299,0.886,2.687,0.966,4.042c0.181,2.717-0.219,5.29-0.034,7.723
							c0.15,2.437,0.992,4.649,1.949,6.628c0.963,1.986,2.036,3.784,2.934,5.526c0.452,0.87,0.868,1.72,1.206,2.573
							c0.358,0.851,0.532,1.722,0.692,2.549c0.255,1.671,0.22,3.226,0.033,4.596c-0.366,2.756-1.406,4.736-2.337,5.848
							c-0.214,0.297-0.461,0.506-0.656,0.702c-0.19,0.202-0.378,0.339-0.531,0.446C437.198,452.879,437.038,452.98,437.038,452.98
							c-0.036-0.041,0.665-0.407,1.568-1.533c0.893-1.117,1.887-3.083,2.218-5.808c0.17-1.354,0.188-2.889-0.077-4.529
							c-0.165-0.811-0.342-1.664-0.698-2.49c-0.338-0.833-0.759-1.678-1.214-2.539c-0.905-1.727-1.99-3.517-2.973-5.516
							c-0.976-1.989-1.852-4.246-2.018-6.746c-0.198-2.485,0.191-5.068,0.001-7.72c-0.085-1.327-0.389-2.649-0.948-3.906
							c-0.551-1.261-1.308-2.458-2.116-3.652c-0.808-1.196-1.671-2.398-2.415-3.716c-0.745-1.309-1.368-2.771-1.512-4.359
							c-0.37-3.216,1.51-6.216,1.044-9.384c-0.224-1.568-0.994-3.031-1.905-4.4c-0.911-1.378-1.977-2.694-2.878-4.17
							c-1.813-2.969-2.68-6.442-3.329-9.92c-0.665-3.485-1.129-7.074-2.431-10.47c-0.648-1.688-1.46-3.341-2.566-4.793
							c-1.088-1.464-2.493-2.697-4.131-3.53l0.375-0.205c-0.012,0.102-0.025,0.213-0.038,0.325c-0.213,1.883-0.56,3.727-0.786,5.562
							c-0.237,1.834-0.322,3.668-0.244,5.487c0.047,0.898,0.097,1.84,0.232,2.687c0.192,0.848,0.548,1.685,0.889,2.515
							c0.698,1.66,1.417,3.322,1.912,5.049c0.55,1.719,0.7,3.52,0.877,5.24c0.182,1.734,0.363,3.452,0.542,5.152
							c0.366,3.386,0.599,6.769,1.958,9.705c0.672,1.462,1.566,2.815,2.228,4.29c0.684,1.473,0.982,3.089,1.053,4.643
							c0.158,3.108-0.264,6.143,0.561,8.9c0.819,2.744,2.562,5.039,3.435,7.643c0.935,2.631,0.526,5.348,0.128,7.753
							c-0.403,2.422-0.807,4.779-0.3,6.922c0.453,2.165,1.975,3.738,2.934,5.459c0.499,0.854,0.856,1.778,0.983,2.699
							c0.136,0.918,0.123,1.802,0.154,2.637c0.037,0.829,0.08,1.643,0.33,2.342c0.249,0.697,0.738,1.249,1.239,1.701
							c1.046,0.876,2.162,1.415,3.143,1.797c0.988,0.379,1.863,0.59,2.575,0.715c0.712,0.133,1.266,0.155,1.637,0.167
							C436.845,452.972,437.038,452.98,437.038,452.98z"/>
					</g>
				</g>
				<g>
					<g>
						<path style="fill:#263238;" d="M412.136,357.982c0.009-0.002,0.035,0.081,0.077,0.244c0.046,0.193,0.103,0.432,0.174,0.726
							c0.155,0.635,0.339,1.594,0.635,2.791c0.31,1.194,1.032,2.548,1.648,4.215c0.64,1.654,1.288,3.57,1.882,5.722
							c0.602,2.15,1.133,4.538,1.687,7.096c0.573,2.553,1.142,5.291,2.533,7.878c0.652,1.312,1.388,2.639,1.97,4.091
							c0.597,1.452,0.914,3.037,1.133,4.627c0.369,3.192,0.936,6.433,1.681,9.75c1.577,6.608,3.079,12.9,4.447,18.631
							c1.402,5.711,2.664,10.857,3.729,15.195c1.035,4.298,1.877,7.791,2.47,10.255c0.273,1.182,0.489,2.115,0.646,2.794
							c0.063,0.296,0.114,0.536,0.155,0.73c0.032,0.165,0.044,0.251,0.036,0.253s-0.038-0.079-0.087-0.24
							c-0.055-0.191-0.122-0.427-0.205-0.717c-0.18-0.674-0.428-1.599-0.741-2.771c-0.632-2.454-1.528-5.934-2.631-10.215
							c-1.096-4.331-2.395-9.468-3.837-15.168c-1.381-5.732-2.897-12.026-4.49-18.636c-0.745-3.313-1.318-6.615-1.677-9.791
							c-0.215-1.58-0.517-3.107-1.09-4.515c-0.561-1.414-1.285-2.735-1.938-4.061c-1.402-2.636-1.975-5.457-2.525-8
							c-0.537-2.564-1.044-4.945-1.621-7.09c-0.568-2.147-1.188-4.061-1.799-5.716c-0.583-1.661-1.282-3.031-1.571-4.265
							c-0.272-1.227-0.42-2.176-0.542-2.822c-0.05-0.298-0.09-0.54-0.123-0.736C412.135,358.069,412.127,357.983,412.136,357.982z"
							/>
					</g>
				</g>
			</g>
			<g>
				<g>
					<path style="fill:#E8505B;" d="M435.616,452.996c-5.241-3.156-6.697-12.653-4.471-18.352
						c2.226-5.699,6.096-10.895,6.722-16.981c0.482-4.678-1.024-9.491,0.092-14.06c1.506-6.166,7.561-10.914,7.528-17.261
						c-0.019-3.561-2.026-6.923-1.844-10.48c0.223-4.362,3.592-7.806,5.688-11.638c3.209-5.866,3.457-12.821,4.58-19.412
						c1.123-6.591,3.678-13.642,9.543-16.852c0.832,5.606,2.284,9.45,1.778,17.036c-0.182,2.724-3.377,7.923-3.842,13.893
						c-0.278,3.568-0.477,7.142-0.715,10.713c-0.232,3.475-0.477,7.013-1.742,10.259c-0.969,2.487-2.516,4.742-3.24,7.311
						c-1.361,4.833,0.361,10.086-0.743,14.984c-0.936,4.15-3.832,7.709-4.444,11.919c-0.859,5.915,2.937,12.088,0.944,17.723
						c-0.989,2.796-3.307,5.033-3.977,7.923c-0.52,2.242,0.02,4.621-0.453,6.874c-0.761,3.629-7.707,6.411-11.406,6.166"/>
				</g>
				<g>
					<g>
						<path style="fill:#263238;" d="M461.974,333.512c0.009,0.001,0,0.109-0.025,0.316c-0.032,0.235-0.072,0.539-0.124,0.92
							c-0.125,0.808-0.267,1.996-0.549,3.53c-0.303,1.543-1.108,3.277-1.756,5.37c-0.683,2.086-1.364,4.494-1.969,7.19
							c-0.615,2.695-1.134,5.679-1.68,8.89c-0.563,3.187-1.14,6.71-2.753,10.048c-0.747,1.677-1.584,3.355-2.215,5.144
							c-0.647,1.782-0.951,3.702-1.142,5.676c-0.294,3.966-0.846,8.089-1.612,12.242c-1.658,8.29-3.237,16.186-4.674,23.373
							c-1.513,7.158-2.875,13.607-4.023,19.036c-1.158,5.389-2.098,9.762-2.756,12.824c-0.331,1.485-0.59,2.651-0.775,3.481
							c-0.089,0.374-0.16,0.672-0.214,0.903c-0.051,0.203-0.082,0.306-0.091,0.304c-0.009-0.002,0.004-0.109,0.038-0.315
							c0.042-0.234,0.096-0.535,0.164-0.913c0.162-0.835,0.39-2.008,0.68-3.501c0.62-3.071,1.504-7.455,2.594-12.858
							c1.116-5.436,2.442-11.892,3.914-19.059c1.424-7.185,2.989-15.079,4.631-23.366c0.766-4.158,1.314-8.22,1.617-12.202
							c0.195-1.985,0.511-3.963,1.18-5.791c0.651-1.827,1.499-3.512,2.247-5.175c1.604-3.288,2.18-6.727,2.765-9.926
							c0.563-3.205,1.105-6.198,1.746-8.898c0.631-2.702,1.34-5.114,2.052-7.2c0.68-2.1,1.51-3.819,1.834-5.322
							c0.308-1.506,0.486-2.705,0.643-3.502c0.072-0.378,0.13-0.678,0.175-0.911C461.939,333.615,461.965,333.511,461.974,333.512z"
							/>
					</g>
				</g>
			</g>
		</g>
	</g>
</g>
</svg>
